<svg width="354" height="591" viewBox="0 0 30 50" xml:space="preserve" xmlns="http://www.w3.org/2000/svg">
  <rect id="placeholder" zaparoo-placeholder="main" x="2.1186" y="9.8984" width="25.8474" height="37.6480" fill="none"
    stroke="red" stroke-dasharray="2 2" stroke-width="0.1" zaparoo-fill-strategy="fit" />
  <rect width="28.494" fill="none" stroke="#000" stroke-width=".506" height="40.994" x=".753" y="8.253" ry="2.05"
    rx="2" />
  <path d="M10.074 45c-.373 0-.674.3-.674.674V49.5H20.6v-3.826c0-.373-.301-.674-.675-.674h-9.85z" />
  <path fill="#fff"
    d="M19.347 46.183h-2.492v1.838h-.705v-1.838h-2.33v-.651h5.527zm0 0H20v1.633c0 .55-.447.997-.999.997h-4.355v-.652h4.184a.517.517 0 0 0 .517-.517zm.045-.215v-.081c.14 0 .253.113.253.252h-.082a.171.171 0 0 0-.171-.171zm.349.17a.35.35 0 0 0-.35-.348v-.08a.43.43 0 0 1 .431.429zm.178 0a.527.527 0 0 0-.527-.525v-.081c.335 0 .608.272.608.607zm-6.213.045h-2.33v1.461c0 .286.232.517.518.517h1.813v.652H11.67a.998.998 0 0 1-.999-.997v-1.633H10v-.651h3.707zm-2.168.14h2.168v1.698h-.705v-1.046h-.757v.304c0 .05.04.09.09.09h.547v.652h-.918a.424.424 0 0 1-.425-.424zm2.282 0h2.168v1.274c0 .234-.19.424-.424.424h-.918v-.652h.546c.05 0 .09-.04.09-.09v-.304h-.756v1.838h-.706Zm5.365 0v1.274c0 .234-.19.424-.424.424h-1.319a.424.424 0 0 1-.425-.424v-1.274zm-.705.652h-.757v.304c0 .05.04.09.09.09h.577c.05 0 .09-.04.09-.09z" />
  <rect width="29" height="7.25" x=".5" y=".5" ry="1.646" rx="2.012" fill="#00a3da" />
  <path d="M19 .5v7.25h8.488c1.115 0 2.012-.734 2.012-1.646V2.146C29.5 1.234 28.603.5 27.488.5H19z" />
  <path
    d="M20.37 6.839h-.082v-.057H19.8v.057h-.082v-.71h.653zm-.082-.141v-.484H19.8v.484zm1.06-.2h-.763v-.085h.762zm.942-.267-.063.028a.447.447 0 0 0-.044-.127l.066-.028a.52.52 0 0 1 .041.127zm-.254-.026h-.457V6.12h.457zm.152.064-.063.027a.468.468 0 0 0-.043-.126l.066-.028c.017.034.03.077.04.127zm.065.167h-.324l.001.038c0 .187-.08.32-.24.4l-.064-.076a.331.331 0 0 0 .165-.12.33.33 0 0 0 .056-.193l-.002-.049h-.355v-.085h.763zm.778-.23a1.406 1.406 0 0 1-.162.176v.372h-.076v-.31a1.022 1.022 0 0 1-.21.128l-.047-.069a.978.978 0 0 0 .244-.148.895.895 0 0 0 .19-.201zm.628.038-.05.074a.623.623 0 0 0-.26-.134l.05-.077a.98.98 0 0 1 .26.137zm.411.096a1.23 1.23 0 0 1-.312.345c-.103.07-.22.125-.35.163l-.053-.085a.942.942 0 0 0 .393-.174c.098-.079.184-.182.257-.31zm.94-.195-.063.027a.46.46 0 0 0-.044-.126l.066-.028a.51.51 0 0 1 .04.127zm-.102.038-.037.018.035.036a.804.804 0 0 1-.158.38.866.866 0 0 1-.345.247l-.063-.079a.8.8 0 0 0 .32-.192.613.613 0 0 0 .154-.307h-.34a.67.67 0 0 1-.172.183l-.066-.06a.72.72 0 0 0 .27-.358l.078.04a.86.86 0 0 1-.056.11h.316a.462.462 0 0 0-.043-.117l.067-.029a.51.51 0 0 1 .04.127zm.64-.02-.03.086a.677.677 0 0 0-.277-.087l.03-.088c.116.025.21.055.277.09zm.357.184a1.157 1.157 0 0 1-.284.325 1.12 1.12 0 0 1-.381.181l-.042-.087a1.04 1.04 0 0 0 .387-.172.842.842 0 0 0 .25-.305zm-.444.054-.032.089a.573.573 0 0 0-.274-.095l.03-.086a.959.959 0 0 1 .276.092zm1.402.395-.07.053a1.101 1.101 0 0 0-.31-.297 1.308 1.308 0 0 1-.351.313l-.064-.068c.115-.062.217-.143.304-.243.088-.1.156-.214.205-.34h-.458v-.082h.536l.025.025c-.034.12-.083.23-.149.327.127.083.238.187.332.311zm.783-.591h-.584V6.12h.584zm.091.231h-.324v.038c0 .187-.079.32-.239.4l-.065-.076a.331.331 0 0 0 .165-.12.33.33 0 0 0 .056-.193l-.001-.049h-.355v-.085h.763zm.931.37-.081.035a.792.792 0 0 0-.05-.127 8.165 8.165 0 0 0-.62.08l-.023-.092L28 6.69l.238-.619.076.03-.222.577.4-.045a.92.92 0 0 0-.142-.214l.084-.037c.082.105.16.246.235.424zm-8.933-.979a.035.035 0 1 1 0-.07h8.93a.035.035 0 0 1 0 .07zm0-1.338h.195l.15.591h.004v-.59h.138v.987h-.16l-.186-.721h-.002v.72h-.139zm.603 0h.41v.141h-.255v.275h.2v.141h-.2v.43h-.155zm.704 1.002c-.074 0-.131-.021-.17-.064a.255.255 0 0 1-.059-.179v-.53c0-.077.02-.137.059-.18.039-.042.096-.063.17-.063.074 0 .13.021.17.064a.255.255 0 0 1 .059.179v.104h-.147v-.114c0-.061-.026-.092-.078-.092-.052 0-.077.03-.077.092v.552c0 .06.025.09.077.09s.078-.03.078-.09v-.151h.147v.14c0 .076-.02.136-.059.178-.04.043-.096.064-.17.064zm.547-1.002h.156v.847H22v.14h-.41zm.705 1.002c-.077 0-.135-.022-.175-.065a.259.259 0 0 1-.061-.183v-.52c0-.079.02-.14.06-.183.041-.043.1-.065.176-.065.076 0 .134.022.175.065.04.043.06.104.06.183v.52c0 .079-.02.14-.06.183-.04.043-.1.065-.175.065zm0-.141c.053 0 .08-.033.08-.098v-.539c0-.064-.027-.097-.08-.097-.054 0-.08.033-.08.097v.54c0 .064.026.097.08.097zm.457-.86h.21l.16.987h-.154l-.029-.196v.002h-.176l-.028.194h-.144Zm.17.66-.07-.489h-.003l-.067.488zm.276-.66h.237c.077 0 .135.02.173.061.039.042.058.102.058.182v.5c0 .08-.02.14-.058.182-.038.041-.096.062-.173.062h-.237zm.234.846c.025 0 .045-.008.059-.023.013-.015.02-.04.02-.073v-.514c0-.034-.006-.058-.02-.073-.014-.015-.034-.023-.06-.023h-.078v.706Zm.339-.847h.155v.988h-.155zm.27 0h.195l.151.591h.003v-.59h.138v.987h-.16l-.186-.721h-.002v.72h-.138zm.823 1.002c-.075 0-.132-.021-.172-.064-.04-.043-.06-.104-.06-.184v-.52c0-.08.02-.141.06-.184.04-.043.097-.064.172-.064.075 0 .133.021.172.064.04.043.06.104.06.184v.085h-.147v-.095c0-.064-.027-.097-.08-.097-.054 0-.081.033-.081.097v.54c0 .065.027.097.08.097.054 0 .08-.032.08-.096V5.06h-.077v-.142h.225v.324c0 .08-.02.14-.06.184-.04.043-.096.064-.172.064zm.76 0c-.076 0-.133-.021-.171-.064-.039-.043-.058-.104-.058-.184v-.057h.147v.068c0 .064.026.096.08.096.026 0 .046-.008.06-.023.014-.016.02-.041.02-.076a.21.21 0 0 0-.028-.11.522.522 0 0 0-.104-.113.624.624 0 0 1-.134-.153.312.312 0 0 1-.038-.154c0-.079.02-.139.059-.182.04-.043.097-.064.172-.064.074 0 .13.021.169.064.038.043.057.104.057.184v.041h-.147v-.05c0-.034-.006-.06-.02-.075-.013-.015-.032-.023-.058-.023-.051 0-.077.032-.077.095 0 .035.01.069.029.1.019.03.054.068.105.113a.58.58 0 0 1 .134.154c.024.046.036.1.036.162 0 .08-.02.143-.06.186-.04.043-.098.065-.174.065zm.457-.435-.188-.567h.165l.106.363h.003l.105-.363h.151l-.187.567v.42h-.155zm.592.435c-.075 0-.132-.021-.17-.064-.04-.043-.058-.104-.058-.184v-.057h.146v.068c0 .064.027.096.08.096.027 0 .047-.008.06-.023.014-.016.021-.041.021-.076a.21.21 0 0 0-.028-.11.521.521 0 0 0-.104-.113.625.625 0 0 1-.134-.153.312.312 0 0 1-.039-.154c0-.079.02-.139.06-.182.04-.043.097-.064.172-.064.074 0 .13.021.168.064.039.043.058.104.058.184v.041h-.147v-.05c0-.034-.006-.06-.02-.075-.013-.015-.032-.023-.058-.023-.052 0-.077.032-.077.095 0 .035.01.069.029.1.019.03.054.068.105.113a.58.58 0 0 1 .134.154c.024.046.036.1.036.162 0 .08-.02.143-.06.186-.04.043-.098.065-.174.065zm.445-.86h-.163v-.142h.48v.141h-.162v.847h-.155Zm.392-.142h.423v.141h-.268v.261h.213v.141h-.213v.304h.268v.14h-.423zm.512 0h.222l.099.707h.002l.1-.707h.22v.988h-.146v-.748h-.003l-.113.748h-.13l-.112-.748h-.003v.748h-.136z"
    clip-rule="evenodd" fill="#fff" fill-rule="evenodd" />
  <g clip-rule="evenodd" fill-rule="evenodd" stroke-linejoin="round" stroke-miterlimit="2">
    <path
      d="M28.9 2.423c0 .566-.459 1.024-1.023 1.024h-7.454a1.024 1.024 0 0 1 0-2.047h7.454c.564 0 1.023.459 1.023 1.023z"
      fill="#fff" />
    <path
      d="M20.27 1.921h.152l.07.773h.003l.075-.773h.172l.075.773h.003l.07-.773h.137l-.102 1.005h-.197l-.072-.677h-.003l-.072.677h-.21zm.837 0h.158v1.005h-.158zm.244.865.293-.721h-.279V1.92h.449v.14l-.293.722h.293v.143h-.463zm.527 0 .293-.721h-.279V1.92h.449v.14l-.293.722h.293v.143h-.463zm.78.155c-.078 0-.137-.022-.178-.066a.263.263 0 0 1-.062-.187V2.16c0-.08.02-.143.062-.187.041-.044.1-.066.178-.066.077 0 .137.022.178.066a.263.263 0 0 1 .062.187v.528c0 .08-.02.143-.062.187-.041.044-.1.066-.178.066zm0-.144c.054 0 .082-.033.082-.099v-.549c0-.066-.028-.099-.082-.099-.055 0-.082.033-.082.1v.548c0 .066.027.099.082.099zm.337-.023h.153v.152h-.153zm.27-.853h.242c.078 0 .137.021.176.063.04.042.06.104.06.186v.508c0 .081-.02.143-.06.185-.039.042-.098.063-.176.063h-.242zm.239.862c.026 0 .045-.008.06-.023.013-.016.02-.04.02-.075v-.523c0-.034-.007-.059-.02-.074-.015-.016-.034-.023-.06-.023h-.08v.718zm.344-.862h.431v.144h-.273v.265h.217v.144h-.217v.309h.273v.143h-.43zm.48 0h.16l.103.78h.003l.103-.78h.145l-.152 1.005h-.21zm.905 0h.136l-.396 1.005h-.137zm.346.144h-.165V1.92h.488v.144h-.165v.861h-.158zm.455-.144h.214l.164 1.005h-.158l-.029-.2v.004h-.18l-.028.196h-.147zm.172.672-.07-.497h-.003l-.069.497zm.282-.672h.233c.078 0 .137.021.176.063.04.042.059.104.059.186v.099c0 .081-.02.143-.059.185-.04.042-.098.063-.176.063h-.075v.41h-.158zm.233.452c.025 0 .045-.007.058-.021.013-.014.02-.039.02-.073v-.12c0-.034-.007-.058-.02-.073-.013-.014-.033-.021-.058-.021h-.075v.308zm.448-.308h-.166V1.92h.489v.144h-.165v.861h-.158zm.621.876c-.077 0-.136-.022-.178-.066a.263.263 0 0 1-.061-.187V2.16c0-.08.02-.143.061-.187.042-.044.1-.066.178-.066.078 0 .137.022.179.066a.263.263 0 0 1 .061.187v.528c0 .08-.02.143-.061.187-.042.044-.101.066-.179.066zm0-.144c.055 0 .082-.033.082-.099v-.549c0-.066-.027-.099-.082-.099-.054 0-.081.033-.081.1v.548c0 .066.027.099.081.099z" />
  </g>
  <path
    d="M3.829 1.5a2.637 2.637 0 0 0-2.63 2.426l1.415.585a.742.742 0 0 1 .462-.129l.629-.91v-.014a.996.996 0 0 1 1.99 0 .996.996 0 0 1-.996.995h-.022l-.897.64.001.034a.748.748 0 0 1-1.479.148l-1.011-.418A2.638 2.638 0 1 0 3.829 1.5zm.87 1.295a.664.664 0 0 0 0 1.326.663.663 0 0 0 0-1.326zm.001.164a.498.498 0 1 1 0 .997.498.498 0 0 1 0-.997zm3.917.151c-.426 0-.722.213-.722.582 0 .328.223.469.545.576.283.094.458.14.458.29 0 .132-.115.221-.356.221-.18 0-.38-.052-.549-.141l-.129.344c.207.126.476.184.7.184.457 0 .776-.228.776-.633 0-.296-.186-.43-.509-.545-.3-.108-.503-.146-.503-.312 0-.137.114-.213.298-.213.16 0 .345.058.481.153l.177-.311c-.132-.1-.37-.195-.667-.195zm9.794.009a.268.268 0 0 0-.262.276c0 .17.129.277.276.277a.268.268 0 0 0 .275-.277.268.268 0 0 0-.275-.276h-.014zm-8.766.026V3.5h.605v1.63h.416v-1.63h.602v-.356H9.645zm2.085 0V5.13h1.34v-.36h-.924v-.466h.796v-.357h-.796V3.5h.923v-.355h-1.34zm2.446 0L13.43 5.13h.436l.132-.385h.776l.135.385h.45l-.765-1.986h-.42zm1.609 0V5.13h.398V3.923l.535 1.15h.235l.544-1.16V5.13h.399V3.145h-.401l-.645 1.434-.668-1.434h-.397zm2.64.018c.126 0 .229.089.229.232a.222.222 0 0 1-.229.233.222.222 0 0 1-.23-.233c0-.142.104-.232.23-.232zm-.091.09v.274h.043V3.42h.056l.054.106h.052l-.064-.12a.082.082 0 0 0 .05-.075c0-.04-.025-.078-.096-.078h-.095zm.044.042h.048c.037 0 .05.016.05.041s-.018.045-.05.045h-.048v-.086zm-3.995.323.277.796h-.548l.271-.796zM3.04 4.566a.562.562 0 0 0-.203.037l.334.138a.413.413 0 1 1-.317.762l-.324-.134a.558.558 0 0 0 1.022-.027.557.557 0 0 0 0-.43.556.556 0 0 0-.512-.346z"
    fill="#fff" />
</svg>