<?xml version="1.0" encoding="UTF-8" standalone="no"?>
<svg xmlns="http://www.w3.org/2000/svg" xml:space="preserve" viewBox="0 0 619 994">
  <rect id="placeholder" zaparoo-placeholder="main" zaparoo-fill-strategy="cover" width="587.063" height="862.027" x="15.968" y="59.986" fill="none" stroke="red" stroke-dasharray="5, 5" stroke-width="2" ry=".985"/>
  <path id="black-frame" d="M24.756 0C11.093 0 0 11.093 0 24.756v944.389C0 982.808 11.093 993.9 24.756 993.9h569.389c13.663 0 24.755-11.092 24.755-24.755V24.755C618.9 11.094 607.808 0 594.145 0Zm-7.803 59.986h585.094c.546 0 .984.439.984.985v860.056a.983.983 0 0 1-.984.987H16.953a.983.983 0 0 1-.984-.987V60.971c0-.546.438-.985.984-.985"/>
  <rect id="logo_1" zaparoo-placeholder="platform_logo" x="15" y="935" width="300" height="40" fill="none" stroke="red"
    stroke-dasharray="5 5" stroke-width="1" zaparoo-fill-strategy="fit" />
  <path id="white-bar" fill="#fff" d="M603.302 956.232c0 .711-.577 1.288-1.288 1.288h-224.52a1.289 1.289 0 0 1 0-2.576h224.52c.711 0 1.288.577 1.288 1.288"/>
  <path id="gold-pins" fill="url(#a)" d="M35.903 11.708v31.561h-9.469V11.708Zm-4.735 25.247a1.579 1.579 0 0 0 0 3.157 1.578 1.578 0 0 0 0-3.157M171.65 11.708v31.561h-9.469V11.708Zm-4.735 25.247a1.579 1.579 0 0 0 0 3.157 1.578 1.578 0 0 0 0-3.157m316.954-25.247v31.561h-9.47V11.708Zm-4.736 25.247a1.579 1.579 0 1 0 .004 3.158 1.579 1.579 0 0 0-.004-3.158M320.972 11.708v31.561h-9.469V11.708Zm-4.735 25.247a1.58 1.58 0 0 0 0 3.157 1.578 1.578 0 0 0 0-3.157M76.627 11.708v31.561h-9.469V11.708Zm-4.735 25.247a1.579 1.579 0 0 0 0 3.157 1.578 1.578 0 0 0 0-3.157m140.482-25.247v31.561h-9.469V11.708Zm-4.735 25.247a1.579 1.579 0 1 0 .004 3.158 1.579 1.579 0 0 0-.004-3.158m316.954-25.247v31.561h-9.47V11.708Zm-4.736 25.247a1.58 1.58 0 0 0 0 3.157 1.579 1.579 0 1 0 0-3.157M361.696 11.708v31.561h-9.469V11.708Zm-4.735 25.247a1.579 1.579 0 0 0 0 3.157 1.578 1.578 0 0 0 0-3.157m-239.61-25.247v31.561h-9.469V11.708Zm-4.735 25.247a1.579 1.579 0 1 0 .004 3.158 1.579 1.579 0 0 0-.004-3.158m140.483-25.247v31.561h-9.47V11.708Zm-4.736 25.247a1.579 1.579 0 1 0 .004 3.158 1.579 1.579 0 0 0-.004-3.158m316.954-25.247v31.561h-9.47V11.708Zm-4.735 25.247a1.58 1.58 0 0 0 0 3.157 1.578 1.578 0 0 0 0-3.157M402.42 11.708v31.561h-9.469V11.708Zm-4.735 25.247a1.579 1.579 0 0 0 0 3.157 1.578 1.578 0 0 0 0-3.157M144.501 11.708v31.561h-9.47V11.708Zm-4.736 25.247a1.58 1.58 0 0 0 0 3.157 1.579 1.579 0 1 0 0-3.157m316.954-25.247v31.561h-9.469V11.708Zm-4.735 25.247a1.579 1.579 0 0 0 0 3.157 1.578 1.578 0 0 0 0-3.157M280.248 11.708v31.561h-9.47V11.708Zm-4.735 25.247a1.58 1.58 0 0 0 0 3.157 1.578 1.578 0 0 0 0-3.157m316.953-25.247v31.561h-9.469V11.708Zm-4.735 25.247a1.579 1.579 0 0 0 0 3.157 1.578 1.578 0 0 0 0-3.157M429.57 11.708v31.561h-9.47V11.708Zm-4.736 25.247a1.58 1.58 0 0 0 0 3.157 1.579 1.579 0 1 0 0-3.157M90.202 11.708v31.561h-9.47V11.708Zm-4.735 25.247a1.58 1.58 0 0 0 0 3.157 1.578 1.578 0 0 0 0-3.157m140.482-25.247v31.561h-9.469V11.708Zm-4.735 25.247a1.579 1.579 0 0 0 0 3.157 1.578 1.578 0 0 0 0-3.157m316.954-25.247v31.561h-9.47V11.708Zm-4.736 25.247a1.579 1.579 0 1 0 .004 3.158 1.579 1.579 0 0 0-.004-3.158M375.271 11.708v31.561h-9.47V11.708Zm-4.735 25.247a1.58 1.58 0 0 0 0 3.157 1.578 1.578 0 0 0 0-3.157m-239.61-25.247v31.561h-9.469V11.708Zm-4.735 25.247a1.579 1.579 0 0 0 0 3.157 1.578 1.578 0 0 0 0-3.157m140.482-25.247v31.561h-9.469V11.708Zm-4.735 25.247a1.579 1.579 0 0 0 0 3.157 1.578 1.578 0 0 0 0-3.157m316.954-25.247v31.561h-9.47V11.708Zm-4.736 25.247a1.579 1.579 0 1 0 .004 3.158 1.579 1.579 0 0 0-.004-3.158M415.995 11.708v31.561h-9.469V11.708Zm-4.735 25.247a1.58 1.58 0 0 0 0 3.157 1.578 1.578 0 0 0 0-3.157M158.076 11.708v31.561h-9.47V11.708Zm-4.736 25.247a1.579 1.579 0 1 0 .004 3.158 1.579 1.579 0 0 0-.004-3.158m316.954-25.247v31.561h-9.47V11.708Zm-4.735 25.247a1.58 1.58 0 0 0 0 3.157 1.578 1.578 0 0 0 0-3.157M307.397 11.708v31.561h-9.469V11.708Zm-4.735 25.247a1.579 1.579 0 1 0 .004 3.158 1.579 1.579 0 0 0-.004-3.158m-8.839-25.247v31.561h-9.47V11.708Zm-4.736 25.247a1.579 1.579 0 1 0 .004 3.158 1.579 1.579 0 0 0-.004-3.158m154.058-25.247v31.561h-9.47V11.708Zm-4.736 25.247a1.579 1.579 0 1 0 .004 3.158 1.579 1.579 0 0 0-.004-3.158m-395.33 6.313h-3.07v-31.56h9.469v31.56H46.62l-1.233 5.306h-1.075zm1.664-6.312a1.579 1.579 0 1 0 .001 3.157 1.579 1.579 0 0 0-.001-3.157m134.083 6.312h-3.07v-31.56h9.469v31.56h-2.858l-1.233 5.306h-1.075zm1.664-6.312a1.579 1.579 0 1 0 .001 3.157 1.579 1.579 0 0 0-.001-3.157m310.554 6.312h-3.07v-31.56h9.469v31.56h-2.857l-1.233 5.306h-1.076zm1.665-6.312a1.579 1.579 0 1 0 0 3.158 1.579 1.579 0 0 0 0-3.158m-164.561 6.312h-3.07v-31.56h9.469v31.56h-2.858l-1.233 5.306h-1.075zm1.664-6.312a1.579 1.579 0 1 0 .001 3.157 1.579 1.579 0 0 0-.001-3.157M96.325 43.268h-2.018v-31.56h9.469v31.56h-4.961l-1.233 5.306h-1.076zm2.717-6.312a1.579 1.579 0 1 0 .001 3.157 1.579 1.579 0 0 0-.001-3.157m133.031 6.312h-2.018v-31.56h9.469v31.56h-4.962l-1.233 5.306h-1.075zm2.716-6.312a1.579 1.579 0 1 0 .001 3.157 1.579 1.579 0 0 0-.001-3.157m309.502 6.312h-2.018v-31.56h9.469v31.56h-4.962l-1.233 5.306h-1.075zm2.716-6.312a1.579 1.579 0 1 0 .001 3.157 1.579 1.579 0 0 0-.001-3.157m-165.613 6.312h-2.018v-31.56h9.469v31.56h-4.961l-1.233 5.306h-1.076zm2.717-6.312a1.579 1.579 0 1 0 .001 3.157 1.579 1.579 0 0 0-.001-3.157M58.758 43.268h-5.175v-31.56h9.469v31.56h-1.805l-.181 5.306h-1.075zm-.44-6.312a1.579 1.579 0 1 0 .001 3.157 1.579 1.579 0 0 0-.001-3.157m136.187 6.312h-5.175v-31.56h9.469v31.56h-1.805l-.181 5.306h-1.075zm-.44-6.312a1.579 1.579 0 1 0 .001 3.157 1.579 1.579 0 0 0-.001-3.157m312.658 6.312h-5.174v-31.56h9.469v31.56h-1.806l-.181 5.306h-1.075zm-.44-6.312a1.579 1.579 0 1 0 .001 3.157 1.579 1.579 0 0 0-.001-3.157m-162.456 6.312h-5.175v-31.56h9.469v31.56h-1.805l-.181 5.306h-1.075zm-.44-6.312a1.579 1.579 0 1 0 .001 3.157 1.579 1.579 0 0 0-.001-3.157"/>
  <defs>
    <linearGradient id="a" x1="0" x2="1" y1="0" y2="0" gradientTransform="translate(563.077 50.047)scale(-441.145)" gradientUnits="userSpaceOnUse">
      <stop offset="0" stop-color="#d7c000"/>
      <stop offset=".34" stop-color="#cfb600"/>
      <stop offset=".62" stop-color="#ffffbf"/>
      <stop offset=".76" stop-color="#e0ca00"/>
      <stop offset="1" stop-color="#ffef7a"/>
    </linearGradient>
  </defs>
  <path id="nfc-loading" fill="#fff" d="M378.923 941.223v6.672q0 1 .492 1.541.493.54 1.446.54.954 0 1.461-.54.51-.54.509-1.541v-6.672h2.717v6.657q0 1.493-.636 2.525a4.07 4.07 0 0 1-1.707 1.557q-1.073.524-2.391.524-1.32 0-2.36-.516a3.85 3.85 0 0 1-1.644-1.557q-.604-1.04-.604-2.533v-6.657zm18.508 11.152h-2.717l-4.543-6.878v6.878h-2.717v-11.152h2.717l4.543 6.91v-6.91h2.717zm4.686-11.152v11.152h-2.716v-11.152zm12.439 0-3.956 11.152h-3.4l-3.955-11.152h2.892l2.764 8.42 2.78-8.42zm3.844 2.176v2.256h3.639v2.097H418.4v2.447h4.115v2.176h-6.83v-11.152h6.83v2.176zm11.566 8.976-2.32-4.21h-.65v4.21h-2.718v-11.152h4.56q1.32 0 2.248.46.93.461 1.39 1.263.46.803.46 1.788a3.32 3.32 0 0 1-.627 1.985q-.627.874-1.85 1.24l2.573 4.416zm-2.97-6.132h1.683q.748 0 1.12-.365.375-.367.374-1.033 0-.636-.374-1-.373-.367-1.12-.366h-1.684zm11.676 6.243q-1.224 0-2.192-.397-.97-.397-1.55-1.176t-.611-1.874h2.891q.064.62.43.946.364.324.952.325.604 0 .954-.278t.35-.77a.91.91 0 0 0-.279-.684 2.3 2.3 0 0 0-.683-.444q-.405-.176-1.152-.397-1.08-.335-1.763-.668a3.25 3.25 0 0 1-1.176-.985q-.492-.65-.492-1.7 0-1.556 1.128-2.439 1.128-.88 2.938-.881 1.845 0 2.971.881 1.128.883 1.208 2.455h-2.939q-.032-.54-.397-.85-.366-.31-.938-.31-.492 0-.794.263-.302.262-.302.754 0 .54.508.842.51.302 1.59.651 1.08.366 1.755.7t1.167.969q.492.634.493 1.636 0 .953-.484 1.731-.486.78-1.407 1.24t-2.176.46m12.677-2.08h-4.162l-.667 1.969h-2.844l4.035-11.152h3.146l4.035 11.152h-2.876zm-.699-2.098-1.382-4.083-1.366 4.083zm8.182 1.97h3.558v2.097h-6.275v-11.152h2.717zm10.946 0h3.558v2.097h-6.275v-11.152h2.717zm10.135 2.208a5.8 5.8 0 0 1-2.884-.73 5.46 5.46 0 0 1-2.08-2.042q-.771-1.31-.771-2.947 0-1.635.77-2.94a5.47 5.47 0 0 1 2.081-2.032 5.8 5.8 0 0 1 2.884-.731q1.573 0 2.883.731a5.36 5.36 0 0 1 2.065 2.033q.755 1.303.755 2.94 0 1.636-.763 2.946a5.4 5.4 0 0 1-2.065 2.042q-1.302.73-2.875.73m0-2.478q1.334 0 2.137-.89t.802-2.35q0-1.478-.802-2.36-.804-.881-2.137-.882-1.35 0-2.152.874-.803.874-.803 2.367 0 1.477.803 2.36.802.88 2.152.881m14.155.397h-4.162l-.668 1.97h-2.843l4.035-11.152h3.145l4.035 11.152h-2.875zm-.7-2.097-1.381-4.083-1.367 4.083zm9.644-7.085q1.763 0 3.082.699a5 5 0 0 1 2.041 1.962q.723 1.263.723 2.915 0 1.636-.723 2.907a4.97 4.97 0 0 1-2.05 1.97q-1.326.699-3.073.699h-4.178v-11.152zm-.175 8.8q1.54 0 2.399-.841.858-.843.858-2.383t-.858-2.4q-.858-.857-2.4-.857h-1.285v6.482zm10.262-8.8v11.152h-2.716v-11.152zm11.947 11.152h-2.716l-4.544-6.878v6.878h-2.716v-11.152h2.716l4.544 6.91v-6.91h2.716zm9.374-7.625a2.04 2.04 0 0 0-.866-.85q-.564-.294-1.327-.294-1.318 0-2.113.865-.794.866-.794 2.312 0 1.541.833 2.407.835.866 2.296.866 1 0 1.692-.509.69-.509 1.009-1.461h-3.447v-2.002h5.91v2.526a5.3 5.3 0 0 1-1.025 1.89 5.4 5.4 0 0 1-1.835 1.414q-1.112.54-2.51.54-1.653 0-2.947-.723a5.14 5.14 0 0 1-2.018-2.009q-.723-1.286-.723-2.94 0-1.65.723-2.946a5.15 5.15 0 0 1 2.01-2.017q1.287-.723 2.939-.723 2.002 0 3.376.969t1.819 2.685zm12.105 7.736q-1.223 0-2.193-.397-.968-.397-1.548-1.176t-.612-1.874h2.891q.063.62.43.946.364.324.952.325.604 0 .953-.278.35-.279.35-.77a.9.9 0 0 0-.278-.684 2.2 2.2 0 0 0-.683-.444q-.405-.176-1.152-.397-1.08-.335-1.763-.668a3.26 3.26 0 0 1-1.176-.985q-.492-.65-.492-1.7 0-1.556 1.127-2.439 1.129-.88 2.94-.881 1.842 0 2.97.881 1.129.883 1.208 2.455h-2.94q-.03-.54-.397-.85-.365-.31-.936-.31-.494 0-.795.263-.302.262-.302.754 0 .54.508.842.51.302 1.589.651 1.08.366 1.755.7.676.333 1.168.969.493.634.492 1.636 0 .953-.484 1.731-.485.78-1.406 1.24-.922.46-2.176.46m15.298-11.263-3.86 7.467v3.685h-2.716v-3.685l-3.861-7.467h3.082l2.16 4.67 2.145-4.67zm5.132 11.263q-1.224 0-2.192-.397-.97-.397-1.55-1.176t-.611-1.874h2.891q.065.62.429.946.366.324.953.325.603 0 .953-.278.35-.279.35-.77a.9.9 0 0 0-.278-.684 2.2 2.2 0 0 0-.683-.444q-.405-.176-1.152-.397-1.08-.335-1.763-.668a3.25 3.25 0 0 1-1.176-.985q-.492-.65-.493-1.7 0-1.556 1.129-2.439 1.127-.88 2.938-.881 1.844 0 2.971.881 1.128.883 1.208 2.455h-2.94q-.03-.54-.396-.85t-.938-.31q-.492 0-.794.263-.303.262-.302.754 0 .54.508.842.51.302 1.59.651 1.08.366 1.754.7.676.333 1.168.969.492.634.493 1.636 0 .953-.485 1.731-.485.78-1.406 1.24-.922.46-2.176.46m13.757-11.263v2.176h-2.954v8.976h-2.717v-8.976h-2.955v-2.176zm4.083 2.176v2.256h3.638v2.097h-3.638v2.447h4.115v2.176h-6.832v-11.152h6.832v2.176zm18.507-2.176v11.152h-2.716v-6.688l-2.494 6.688H595.9l-2.51-6.704v6.704h-2.717v-11.152h3.21l3.129 7.72 3.098-7.72z"/>
  <path id="nfc-loading-jap" fill="#fff" d="M389.149 970.54v1.555h-12.943v-1.555h7.488c.149-2.033.298-4.016.413-6.033h-6.016v-1.57h7.818c-.165 2.959-.33 5.488-.495 7.603zm12.661-7.57v1.62h-9.851v-1.62zm1.521 7.322v1.654h-12.81v-1.654zm2.496 2.43-1.587-1.206c1.736-2.446 2.91-5.521 3.47-9.24l1.638.76c-.678 3.802-1.852 7.009-3.521 9.686m11.603-1.09-1.785.76c-.611-3.108-1.769-6.215-3.405-9.356l1.471-.76c1.72 3.041 2.959 6.165 3.72 9.356m-.594-8.364-1.224.496c-.182-.53-.528-1.158-.991-1.836l1.156-.512c.414.596.794 1.224 1.059 1.852m1.685-.794-1.173.546a12 12 0 0 0-1.124-1.769l1.14-.496c.43.53.81 1.108 1.157 1.72m12.2 4.034v1.338h-10.448v-1.338zm15.834-2.332v1.587h-3.174v1.075c0 3.454-1.834 5.834-5.47 7.124l-.926-1.52c3.173-.943 4.744-2.81 4.744-5.604v-1.075h-3.984v3.736h-1.636v-3.736h-3.091v-1.587h3.09v-3.107h1.637v3.107h3.984v-3.223h1.652v3.223zm2.215 9.075-1.058-1.438c1.752-1.421 2.645-3.47 2.645-6.149v-4.05h1.636v4.116c0 3.174-1.057 5.67-3.223 7.521m10.976-6.562.958 1.455c-1.653 2.364-3.652 3.983-6.033 4.959l-.843-1.852.248-.1v-9.983h1.653v9.29q2.504-1.464 4.017-3.769m13.62-4.149v9.736h-10.017v-9.736zm-8.397 8.2h6.744v-6.662h-6.744zm22.942-4.232v1.338h-10.446v-1.338zm12.58-4.992v1.586h-8.695v-1.586zm2.396 3.801v1.587h-5.157c0 3.223-1.62 5.52-4.86 6.876l-.942-1.504c2.777-1.074 4.165-2.86 4.165-5.372h-5.818v-1.587zm-.165-2.777-1.091.447a7.6 7.6 0 0 0-.992-1.967l1.074-.446c.397.61.728 1.256 1.009 1.966m1.636-.661-1.074.43a8 8 0 0 0-.959-1.868l1.075-.463c.396.612.727 1.24.958 1.9m7.984 5.19v6.678h-1.52v-5.438c-.926.694-2.067 1.389-3.406 2.05l-.942-1.471c2.777-1.224 5.09-3.042 6.959-5.34l1.24 1.042a25 25 0 0 1-2.331 2.48m12.628-2.793-1.14 1.322c-.992-1.008-2.116-1.868-3.34-2.661l1.142-1.256c1.206.76 2.313 1.62 3.338 2.595m5.67.876.942 1.47c-2.744 3.39-6.264 5.638-10.48 6.68l-.76-1.588c4.232-1.041 7.703-3.24 10.298-6.562m13.124-1.984 1.008 1.075c-1.553 4.578-4.363 7.801-8.446 9.603l-.959-1.404c3.637-1.637 6.149-4.2 7.57-7.687h-4.66c-.942 1.389-1.968 2.53-3.092 3.405l-1.057-1.206c2-1.57 3.388-3.57 4.215-6.066l1.57.132c-.248.843-.546 1.537-.81 2.148zm1.703-.826-1.14.512c-.232-.512-.596-1.107-1.075-1.768l1.157-.512c.43.628.81 1.222 1.058 1.768m1.669-.612-1.124.447a8.4 8.4 0 0 0-1.025-1.703l1.075-.447c.462.579.81 1.158 1.074 1.703m7.091 1.075-.975 1.256a17 17 0 0 0-3.537-1.884l.975-1.207c1.29.512 2.43 1.091 3.537 1.835m-1.702 3.603-.942 1.29c-.926-.744-2.066-1.39-3.422-1.984l.958-1.19c1.306.496 2.447 1.123 3.406 1.884m7.107-.843.843 1.422c-3.04 3.405-6.694 5.587-10.926 6.495l-.86-1.57c4.133-.81 7.786-2.926 10.943-6.347m15.075 6.38-1.273 1.34c-1.107-1.422-2.513-2.943-4.265-4.563-1.883 2.05-3.917 3.587-6.132 4.562l-.942-1.554c3.72-1.62 6.595-4.38 8.661-8.314H563.6v-1.586h8.231l1.075 1.124c-.91 1.934-1.852 3.454-2.761 4.578 1.95 1.636 3.487 3.108 4.562 4.414m12.976-10.446v1.586h-9.786V961.5zm1.471 3.801v1.587h-5.323c0 3.223-1.636 5.522-4.86 6.877l-.941-1.504c2.793-1.075 4.165-2.86 4.165-5.373h-5.802V965.3zm14.148 7.026-1.503.942c-.149-.496-.38-1.075-.694-1.769-3.29.512-6.58.959-9.902 1.372l-.644-1.752c.777-.066 1.487-.116 2.082-.182 1.008-2.727 2.034-5.934 3.042-9.62l1.769.33c-1.092 3.687-2.083 6.745-2.976 9.158l5.917-.695c-.463-.958-1.14-2.032-2-3.288l1.39-.827c1.503 2.215 2.693 4.314 3.52 6.331"/>
</svg>