<?xml version="1.0" encoding="UTF-8" standalone="no"?>
<svg
   xml:space="preserve"
   viewBox="0 0 631 994"
   version="1.1"
   id="svg5"
   width="631"
   height="994"
   xmlns="http://www.w3.org/2000/svg"
   xmlns:svg="http://www.w3.org/2000/svg">
  <rect
   id="placeholder"
   zaparoo-placeholder="main"
   zaparoo-fill-strategy="cover"
   width="587.06299"
   height="862.02698"
   x="15.968"
   y="59.986"
   fill="none"
   stroke="#ff0000"
   stroke-dasharray="5, 5"
   stroke-width="2"
   ry="0.98500001" />
  <path
   id="black-frame"
   d="M 24.756,0 C 11.093,0 0,11.093 0,24.756 V 969.145 C 0,982.808 11.093,993.9 24.756,993.9 h 580.5228 c 13.663,0 24.755,-11.092 24.755,-24.755 V 24.755 C 630.0338,11.094 618.9418,0 605.2788,0 Z m -7.803,59.986 h 596.2278 c 0.546,0 0.984,0.439 0.984,0.985 v 860.056 c 0.002,0.54485 -0.43915,0.98756 -0.984,0.987 H 16.953 c -0.544853,5.6e-4 -0.986217,-0.44215 -0.984,-0.987 V 60.971 c 0,-0.546 0.438,-0.985 0.984,-0.985" />
  <rect
   id="logo_1"
   zaparoo-placeholder="platform_logo"
   x="15"
   y="935"
   width="300"
   height="40"
   fill="none"
   stroke="#ff0000"
   stroke-dasharray="5, 5"
   stroke-width="1"
   zaparoo-fill-strategy="fit" />
  <path
   id="white-bar"
   fill="#ffffff"
   d="m 613.1533,954.26174 c 0,0.711 -0.577,1.288 -1.288,1.288 h -224.52 a 1.289,1.289 0 0 1 0,-2.576 h 224.52 c 0.711,0 1.288,0.577 1.288,1.288" />
  <path
   id="gold-pins"
   fill="url(#a)"
   d="M 41.953,11.708 V 43.269 H 32.484 V 11.708 Z m -4.735,25.247 a 1.579,1.579 0 0 0 0,3.157 1.5785,1.5785 0 0 0 0,-3.157 M 177.7,11.708 v 31.561 h -9.469 V 11.708 Z m -4.735,25.247 a 1.579,1.579 0 0 0 0,3.157 1.5785,1.5785 0 0 0 0,-3.157 M 489.919,11.708 v 31.561 h -9.47 V 11.708 Z m -4.736,25.247 a 1.5790013,1.5790013 0 1 0 0.004,3.158 1.5790013,1.5790013 0 0 0 -0.004,-3.158 M 327.022,11.708 v 31.561 h -9.469 V 11.708 Z m -4.735,25.247 a 1.58,1.58 0 0 0 0,3.157 1.5785,1.5785 0 0 0 0,-3.157 M 82.677,11.708 V 43.269 H 73.208 V 11.708 Z m -4.735,25.247 a 1.579,1.579 0 0 0 0,3.157 1.5785,1.5785 0 0 0 0,-3.157 M 218.424,11.708 v 31.561 h -9.469 V 11.708 Z m -4.735,25.247 a 1.5790013,1.5790013 0 1 0 0.004,3.158 1.5790013,1.5790013 0 0 0 -0.004,-3.158 M 530.643,11.708 v 31.561 h -9.47 V 11.708 Z m -4.736,25.247 a 1.58,1.58 0 0 0 0,3.157 1.579,1.579 0 1 0 0,-3.157 M 367.746,11.708 v 31.561 h -9.469 V 11.708 Z m -4.735,25.247 a 1.579,1.579 0 0 0 0,3.157 1.5785,1.5785 0 0 0 0,-3.157 M 123.401,11.708 v 31.561 h -9.469 V 11.708 Z m -4.735,25.247 a 1.5790013,1.5790013 0 1 0 0.004,3.158 1.5790013,1.5790013 0 0 0 -0.004,-3.158 M 259.149,11.708 v 31.561 h -9.47 V 11.708 Z m -4.736,25.247 a 1.5790013,1.5790013 0 1 0 0.004,3.158 1.5790013,1.5790013 0 0 0 -0.004,-3.158 M 571.367,11.708 v 31.561 h -9.47 V 11.708 Z m -4.735,25.247 a 1.58,1.58 0 0 0 0,3.157 1.5785,1.5785 0 0 0 0,-3.157 M 408.47,11.708 v 31.561 h -9.469 V 11.708 Z m -4.735,25.247 a 1.579,1.579 0 0 0 0,3.157 1.5785,1.5785 0 0 0 0,-3.157 M 150.551,11.708 v 31.561 h -9.47 V 11.708 Z m -4.736,25.247 a 1.58,1.58 0 0 0 0,3.157 1.579,1.579 0 1 0 0,-3.157 M 462.769,11.708 V 43.269 H 453.3 V 11.708 Z m -4.735,25.247 a 1.579,1.579 0 0 0 0,3.157 1.5785,1.5785 0 0 0 0,-3.157 M 286.298,11.708 v 31.561 h -9.47 V 11.708 Z m -4.735,25.247 a 1.58,1.58 0 0 0 0,3.157 1.5785,1.5785 0 0 0 0,-3.157 M 598.516,11.708 v 31.561 h -9.469 V 11.708 Z m -4.735,25.247 a 1.579,1.579 0 0 0 0,3.157 1.5785,1.5785 0 0 0 0,-3.157 M 435.62,11.708 v 31.561 h -9.47 V 11.708 Z m -4.736,25.247 a 1.58,1.58 0 0 0 0,3.157 1.579,1.579 0 1 0 0,-3.157 M 96.252,11.708 v 31.561 h -9.47 V 11.708 Z m -4.735,25.247 a 1.58,1.58 0 0 0 0,3.157 1.5785,1.5785 0 0 0 0,-3.157 M 231.999,11.708 V 43.269 H 222.53 V 11.708 Z m -4.735,25.247 a 1.579,1.579 0 0 0 0,3.157 1.5785,1.5785 0 0 0 0,-3.157 M 544.218,11.708 v 31.561 h -9.47 V 11.708 Z m -4.736,25.247 a 1.5790013,1.5790013 0 1 0 0.004,3.158 1.5790013,1.5790013 0 0 0 -0.004,-3.158 M 381.321,11.708 v 31.561 h -9.47 V 11.708 Z m -4.735,25.247 a 1.58,1.58 0 0 0 0,3.157 1.5785,1.5785 0 0 0 0,-3.157 M 136.976,11.708 v 31.561 h -9.469 V 11.708 Z m -4.735,25.247 a 1.579,1.579 0 0 0 0,3.157 1.5785,1.5785 0 0 0 0,-3.157 M 272.723,11.708 v 31.561 h -9.469 V 11.708 Z m -4.735,25.247 a 1.579,1.579 0 0 0 0,3.157 1.5785,1.5785 0 0 0 0,-3.157 M 584.942,11.708 v 31.561 h -9.47 V 11.708 Z m -4.736,25.247 a 1.5790013,1.5790013 0 1 0 0.004,3.158 1.5790013,1.5790013 0 0 0 -0.004,-3.158 M 422.045,11.708 v 31.561 h -9.469 V 11.708 Z m -4.735,25.247 a 1.58,1.58 0 0 0 0,3.157 1.5785,1.5785 0 0 0 0,-3.157 M 164.126,11.708 v 31.561 h -9.47 V 11.708 Z m -4.736,25.247 a 1.5790013,1.5790013 0 1 0 0.004,3.158 1.5790013,1.5790013 0 0 0 -0.004,-3.158 M 476.344,11.708 v 31.561 h -9.47 V 11.708 Z m -4.735,25.247 a 1.58,1.58 0 0 0 0,3.157 1.5785,1.5785 0 0 0 0,-3.157 M 313.447,11.708 v 31.561 h -9.469 V 11.708 Z m -4.735,25.247 a 1.5790013,1.5790013 0 1 0 0.004,3.158 1.5790013,1.5790013 0 0 0 -0.004,-3.158 m -8.839,-25.247 v 31.561 h -9.47 V 11.708 Z m -4.736,25.247 a 1.5790013,1.5790013 0 1 0 0.004,3.158 1.5790013,1.5790013 0 0 0 -0.004,-3.158 M 449.195,11.708 v 31.561 h -9.47 V 11.708 Z m -4.736,25.247 a 1.5790013,1.5790013 0 1 0 0.004,3.158 1.5790013,1.5790013 0 0 0 -0.004,-3.158 m -395.33,6.313 h -3.07 v -31.56 h 9.469 v 31.56 H 52.67 l -1.233,5.306 h -1.075 z m 1.664,-6.312 a 1.579,1.579 0 1 0 10e-4,3.157 1.579,1.579 0 0 0 -10e-4,-3.157 m 134.083,6.312 h -3.07 v -31.56 h 9.469 v 31.56 h -2.858 l -1.233,5.306 h -1.075 z m 1.664,-6.312 a 1.579,1.579 0 1 0 0.001,3.157 1.579,1.579 0 0 0 -0.001,-3.157 m 310.554,6.312 h -3.07 v -31.56 h 9.469 v 31.56 h -2.857 l -1.233,5.306 h -1.076 z m 1.665,-6.312 a 1.579,1.579 0 1 0 0,3.158 1.579,1.579 0 0 0 0,-3.158 m -164.561,6.312 h -3.07 v -31.56 h 9.469 v 31.56 h -2.858 l -1.233,5.306 h -1.075 z m 1.664,-6.312 a 1.579,1.579 0 1 0 10e-4,3.157 1.579,1.579 0 0 0 -10e-4,-3.157 m -233.487,6.312 h -2.018 v -31.56 h 9.469 v 31.56 h -4.961 l -1.233,5.306 h -1.076 z m 2.717,-6.312 a 1.579,1.579 0 1 0 0.001,3.157 1.579,1.579 0 0 0 -0.001,-3.157 m 133.031,6.312 h -2.018 v -31.56 h 9.469 v 31.56 h -4.962 l -1.233,5.306 h -1.075 z m 2.716,-6.312 a 1.579,1.579 0 1 0 0.001,3.157 1.579,1.579 0 0 0 -0.001,-3.157 m 309.502,6.312 h -2.018 v -31.56 h 9.469 v 31.56 h -4.962 l -1.233,5.306 h -1.075 z m 2.716,-6.312 a 1.579,1.579 0 1 0 10e-4,3.157 1.579,1.579 0 0 0 -10e-4,-3.157 m -165.613,6.312 h -2.018 v -31.56 h 9.469 v 31.56 h -4.961 l -1.233,5.306 h -1.076 z m 2.717,-6.312 a 1.579,1.579 0 1 0 10e-4,3.157 1.579,1.579 0 0 0 -10e-4,-3.157 M 64.808,43.268 h -5.175 v -31.56 h 9.469 v 31.56 h -1.805 l -0.181,5.306 h -1.075 z m -0.44,-6.312 a 1.579,1.579 0 1 0 0.001,3.157 1.579,1.579 0 0 0 -0.001,-3.157 m 136.187,6.312 h -5.175 v -31.56 h 9.469 v 31.56 h -1.805 l -0.181,5.306 h -1.075 z m -0.44,-6.312 a 1.579,1.579 0 1 0 0.001,3.157 1.579,1.579 0 0 0 -0.001,-3.157 m 312.658,6.312 h -5.174 v -31.56 h 9.469 v 31.56 h -1.806 l -0.181,5.306 h -1.075 z m -0.44,-6.312 a 1.579,1.579 0 1 0 10e-4,3.157 1.579,1.579 0 0 0 -10e-4,-3.157 m -162.456,6.312 h -5.175 v -31.56 h 9.469 v 31.56 h -1.805 l -0.181,5.306 h -1.075 z m -0.44,-6.312 a 1.579,1.579 0 1 0 10e-4,3.157 1.579,1.579 0 0 0 -10e-4,-3.157"
   style="fill:url(#a)" />
  <defs
   id="defs5">
    <linearGradient
   id="a"
   x1="0"
   x2="1"
   y1="0"
   y2="0"
   gradientTransform="matrix(-441.145,0,0,-441.145,569.127,50.047)"
   gradientUnits="userSpaceOnUse">
      <stop
   offset="0"
   stop-color="#d7c000"
   id="stop1" />
      <stop
   offset=".34"
   stop-color="#cfb600"
   id="stop2" />
      <stop
   offset=".62"
   stop-color="#ffffbf"
   id="stop3" />
      <stop
   offset=".76"
   stop-color="#e0ca00"
   id="stop4" />
      <stop
   offset="1"
   stop-color="#ffef7a"
   id="stop5" />
    </linearGradient>
  </defs>
  <path
   id="nfc-loading"
   fill="#ffffff"
   d="m 388.7743,939.25274 v 6.672 q 0,1 0.492,1.541 0.493,0.54 1.446,0.54 0.954,0 1.461,-0.54 0.51,-0.54 0.509,-1.541 v -6.672 h 2.717 v 6.657 q 0,1.493 -0.636,2.525 a 4.07,4.07 0 0 1 -1.707,1.557 q -1.073,0.524 -2.391,0.524 -1.32,0 -2.36,-0.516 a 3.85,3.85 0 0 1 -1.644,-1.557 q -0.604,-1.04 -0.604,-2.533 v -6.657 z m 18.508,11.152 h -2.717 l -4.543,-6.878 v 6.878 h -2.717 v -11.152 h 2.717 l 4.543,6.91 v -6.91 h 2.717 z m 4.686,-11.152 v 11.152 h -2.716 v -11.152 z m 12.439,0 -3.956,11.152 h -3.4 l -3.955,-11.152 h 2.892 l 2.764,8.42 2.78,-8.42 z m 3.844,2.176 v 2.256 h 3.639 v 2.097 h -3.639 v 2.447 h 4.115 v 2.176 h -6.83 v -11.152 h 6.83 v 2.176 z m 11.566,8.976 -2.32,-4.21 h -0.65 v 4.21 h -2.718 v -11.152 h 4.56 q 1.32,0 2.248,0.46 0.93,0.461 1.39,1.263 0.46,0.803 0.46,1.788 a 3.32,3.32 0 0 1 -0.627,1.985 q -0.627,0.874 -1.85,1.24 l 2.573,4.416 z m -2.97,-6.132 h 1.683 q 0.748,0 1.12,-0.365 0.375,-0.367 0.374,-1.033 0,-0.636 -0.374,-1 -0.373,-0.367 -1.12,-0.366 h -1.684 z m 11.676,6.243 q -1.224,0 -2.192,-0.397 -0.97,-0.397 -1.55,-1.176 -0.58,-0.779 -0.611,-1.874 h 2.891 q 0.064,0.62 0.43,0.946 0.364,0.324 0.952,0.325 0.604,0 0.954,-0.278 0.35,-0.278 0.35,-0.77 a 0.91,0.91 0 0 0 -0.279,-0.684 2.3,2.3 0 0 0 -0.683,-0.444 q -0.405,-0.176 -1.152,-0.397 -1.08,-0.335 -1.763,-0.668 a 3.25,3.25 0 0 1 -1.176,-0.985 q -0.492,-0.65 -0.492,-1.7 0,-1.556 1.128,-2.439 1.128,-0.88 2.938,-0.881 1.845,0 2.971,0.881 1.128,0.883 1.208,2.455 h -2.939 q -0.032,-0.54 -0.397,-0.85 -0.366,-0.31 -0.938,-0.31 -0.492,0 -0.794,0.263 -0.302,0.262 -0.302,0.754 0,0.54 0.508,0.842 0.51,0.302 1.59,0.651 1.08,0.366 1.755,0.7 0.675,0.334 1.167,0.969 0.492,0.634 0.493,1.636 0,0.953 -0.484,1.731 -0.486,0.78 -1.407,1.24 -0.921,0.46 -2.176,0.46 m 12.677,-2.08 h -4.162 l -0.667,1.969 h -2.844 l 4.035,-11.152 h 3.146 l 4.035,11.152 h -2.876 z m -0.699,-2.098 -1.382,-4.083 -1.366,4.083 z m 8.182,1.97 h 3.558 v 2.097 h -6.275 v -11.152 h 2.717 z m 10.946,0 h 3.558 v 2.097 h -6.275 v -11.152 h 2.717 z m 10.135,2.208 a 5.8,5.8 0 0 1 -2.884,-0.73 5.46,5.46 0 0 1 -2.08,-2.042 q -0.771,-1.31 -0.771,-2.947 0,-1.635 0.77,-2.94 a 5.47,5.47 0 0 1 2.081,-2.032 5.8,5.8 0 0 1 2.884,-0.731 q 1.573,0 2.883,0.731 a 5.36,5.36 0 0 1 2.065,2.033 q 0.755,1.303 0.755,2.94 0,1.636 -0.763,2.946 a 5.4,5.4 0 0 1 -2.065,2.042 q -1.302,0.73 -2.875,0.73 m 0,-2.478 q 1.334,0 2.137,-0.89 0.803,-0.89 0.802,-2.35 0,-1.478 -0.802,-2.36 -0.804,-0.881 -2.137,-0.882 -1.35,0 -2.152,0.874 -0.803,0.874 -0.803,2.367 0,1.477 0.803,2.36 0.802,0.88 2.152,0.881 m 14.155,0.397 h -4.162 l -0.668,1.97 h -2.843 l 4.035,-11.152 h 3.145 l 4.035,11.152 h -2.875 z m -0.7,-2.097 -1.381,-4.083 -1.367,4.083 z m 9.644,-7.085 q 1.763,0 3.082,0.699 a 5,5 0 0 1 2.041,1.962 q 0.723,1.263 0.723,2.915 0,1.636 -0.723,2.907 a 4.97,4.97 0 0 1 -2.05,1.97 q -1.326,0.699 -3.073,0.699 h -4.178 v -11.152 z m -0.175,8.8 q 1.54,0 2.399,-0.841 0.858,-0.843 0.858,-2.383 0,-1.54 -0.858,-2.4 -0.858,-0.857 -2.4,-0.857 h -1.285 v 6.482 z m 10.262,-8.8 v 11.152 h -2.716 v -11.152 z m 11.947,11.152 h -2.716 l -4.544,-6.878 v 6.878 h -2.716 v -11.152 h 2.716 l 4.544,6.91 v -6.91 h 2.716 z m 9.374,-7.625 a 2.04,2.04 0 0 0 -0.866,-0.85 q -0.564,-0.294 -1.327,-0.294 -1.318,0 -2.113,0.865 -0.794,0.866 -0.794,2.312 0,1.541 0.833,2.407 0.835,0.866 2.296,0.866 1,0 1.692,-0.509 0.69,-0.509 1.009,-1.461 h -3.447 v -2.002 h 5.91 v 2.526 a 5.3,5.3 0 0 1 -1.025,1.89 5.4,5.4 0 0 1 -1.835,1.414 q -1.112,0.54 -2.51,0.54 -1.653,0 -2.947,-0.723 a 5.14,5.14 0 0 1 -2.018,-2.009 q -0.723,-1.286 -0.723,-2.94 0,-1.65 0.723,-2.946 a 5.15,5.15 0 0 1 2.01,-2.017 q 1.287,-0.723 2.939,-0.723 2.002,0 3.376,0.969 1.374,0.969 1.819,2.685 z m 12.105,7.736 q -1.223,0 -2.193,-0.397 -0.968,-0.397 -1.548,-1.176 -0.58,-0.779 -0.612,-1.874 h 2.891 q 0.063,0.62 0.43,0.946 0.364,0.324 0.952,0.325 0.604,0 0.953,-0.278 0.35,-0.279 0.35,-0.77 a 0.9,0.9 0 0 0 -0.278,-0.684 2.2,2.2 0 0 0 -0.683,-0.444 q -0.405,-0.176 -1.152,-0.397 -1.08,-0.335 -1.763,-0.668 a 3.26,3.26 0 0 1 -1.176,-0.985 q -0.492,-0.65 -0.492,-1.7 0,-1.556 1.127,-2.439 1.129,-0.88 2.94,-0.881 1.842,0 2.97,0.881 1.129,0.883 1.208,2.455 h -2.94 q -0.03,-0.54 -0.397,-0.85 -0.365,-0.31 -0.936,-0.31 -0.494,0 -0.795,0.263 -0.302,0.262 -0.302,0.754 0,0.54 0.508,0.842 0.51,0.302 1.589,0.651 1.08,0.366 1.755,0.7 0.676,0.333 1.168,0.969 0.493,0.634 0.492,1.636 0,0.953 -0.484,1.731 -0.485,0.78 -1.406,1.24 -0.922,0.46 -2.176,0.46 m 15.298,-11.263 -3.86,7.467 v 3.685 h -2.716 v -3.685 l -3.861,-7.467 h 3.082 l 2.16,4.67 2.145,-4.67 z m 5.132,11.263 q -1.224,0 -2.192,-0.397 -0.97,-0.397 -1.55,-1.176 -0.58,-0.779 -0.611,-1.874 h 2.891 q 0.065,0.62 0.429,0.946 0.366,0.324 0.953,0.325 0.603,0 0.953,-0.278 0.35,-0.279 0.35,-0.77 a 0.9,0.9 0 0 0 -0.278,-0.684 2.2,2.2 0 0 0 -0.683,-0.444 q -0.405,-0.176 -1.152,-0.397 -1.08,-0.335 -1.763,-0.668 a 3.25,3.25 0 0 1 -1.176,-0.985 q -0.492,-0.65 -0.493,-1.7 0,-1.556 1.129,-2.439 1.127,-0.88 2.938,-0.881 1.844,0 2.971,0.881 1.128,0.883 1.208,2.455 h -2.94 q -0.03,-0.54 -0.396,-0.85 -0.366,-0.31 -0.938,-0.31 -0.492,0 -0.794,0.263 -0.303,0.262 -0.302,0.754 0,0.54 0.508,0.842 0.51,0.302 1.59,0.651 1.08,0.366 1.754,0.7 0.676,0.333 1.168,0.969 0.492,0.634 0.493,1.636 0,0.953 -0.485,1.731 -0.485,0.78 -1.406,1.24 -0.922,0.46 -2.176,0.46 m 13.757,-11.263 v 2.176 h -2.954 v 8.976 h -2.717 v -8.976 h -2.955 v -2.176 z m 4.083,2.176 v 2.256 h 3.638 v 2.097 h -3.638 v 2.447 h 4.115 v 2.176 h -6.832 v -11.152 h 6.832 v 2.176 z m 18.507,-2.176 v 11.152 h -2.716 v -6.688 l -2.494,6.688 h -2.192 l -2.51,-6.704 v 6.704 h -2.717 v -11.152 h 3.21 l 3.129,7.72 3.098,-7.72 z" />
  <path
   id="nfc-loading-jap"
   fill="#ffffff"
   d="m 399.0003,968.56974 v 1.555 h -12.943 v -1.555 h 7.488 c 0.149,-2.033 0.298,-4.016 0.413,-6.033 h -6.016 v -1.57 h 7.818 c -0.165,2.959 -0.33,5.488 -0.495,7.603 z m 12.661,-7.57 v 1.62 h -9.851 v -1.62 z m 1.521,7.322 v 1.654 h -12.81 v -1.654 z m 2.496,2.43 -1.587,-1.206 c 1.736,-2.446 2.91,-5.521 3.47,-9.24 l 1.638,0.76 c -0.678,3.802 -1.852,7.009 -3.521,9.686 m 11.603,-1.09 -1.785,0.76 c -0.611,-3.108 -1.769,-6.215 -3.405,-9.356 l 1.471,-0.76 c 1.72,3.041 2.959,6.165 3.72,9.356 m -0.594,-8.364 -1.224,0.496 c -0.182,-0.53 -0.528,-1.158 -0.991,-1.836 l 1.156,-0.512 c 0.414,0.596 0.794,1.224 1.059,1.852 m 1.685,-0.794 -1.173,0.546 a 12,12 0 0 0 -1.124,-1.769 l 1.14,-0.496 c 0.43,0.53 0.81,1.108 1.157,1.72 m 12.2,4.034 v 1.338 h -10.448 v -1.338 z m 15.834,-2.332 v 1.587 h -3.174 v 1.075 c 0,3.454 -1.834,5.834 -5.47,7.124 l -0.926,-1.52 c 3.173,-0.943 4.744,-2.81 4.744,-5.604 v -1.075 h -3.984 v 3.736 h -1.636 v -3.736 h -3.091 v -1.587 h 3.09 v -3.107 h 1.637 v 3.107 h 3.984 v -3.223 h 1.652 v 3.223 z m 2.215,9.075 -1.058,-1.438 c 1.752,-1.421 2.645,-3.47 2.645,-6.149 v -4.05 h 1.636 v 4.116 c 0,3.174 -1.057,5.67 -3.223,7.521 m 10.976,-6.562 0.958,1.455 c -1.653,2.364 -3.652,3.983 -6.033,4.959 l -0.843,-1.852 0.248,-0.1 v -9.983 h 1.653 v 9.29 q 2.504,-1.464 4.017,-3.769 m 13.62,-4.149 v 9.736 h -10.017 v -9.736 z m -8.397,8.2 h 6.744 v -6.662 h -6.744 z m 22.942,-4.232 v 1.338 h -10.446 v -1.338 z m 12.58,-4.992 v 1.586 h -8.695 v -1.586 z m 2.396,3.801 v 1.587 h -5.157 c 0,3.223 -1.62,5.52 -4.86,6.876 l -0.942,-1.504 c 2.777,-1.074 4.165,-2.86 4.165,-5.372 h -5.818 v -1.587 z m -0.165,-2.777 -1.091,0.447 a 7.6,7.6 0 0 0 -0.992,-1.967 l 1.074,-0.446 c 0.397,0.61 0.728,1.256 1.009,1.966 m 1.636,-0.661 -1.074,0.43 a 8,8 0 0 0 -0.959,-1.868 l 1.075,-0.463 c 0.396,0.612 0.727,1.24 0.958,1.9 m 7.984,5.19 v 6.678 h -1.52 v -5.438 c -0.926,0.694 -2.067,1.389 -3.406,2.05 l -0.942,-1.471 c 2.777,-1.224 5.09,-3.042 6.959,-5.34 l 1.24,1.042 a 25,25 0 0 1 -2.331,2.48 m 12.628,-2.793 -1.14,1.322 c -0.992,-1.008 -2.116,-1.868 -3.34,-2.661 l 1.142,-1.256 c 1.206,0.76 2.313,1.62 3.338,2.595 m 5.67,0.876 0.942,1.47 c -2.744,3.39 -6.264,5.638 -10.48,6.68 l -0.76,-1.588 c 4.232,-1.041 7.703,-3.24 10.298,-6.562 m 13.124,-1.984 1.008,1.075 c -1.553,4.578 -4.363,7.801 -8.446,9.603 l -0.959,-1.404 c 3.637,-1.637 6.149,-4.2 7.57,-7.687 h -4.66 c -0.942,1.389 -1.968,2.53 -3.092,3.405 l -1.057,-1.206 c 2,-1.57 3.388,-3.57 4.215,-6.066 l 1.57,0.132 c -0.248,0.843 -0.546,1.537 -0.81,2.148 z m 1.703,-0.826 -1.14,0.512 c -0.232,-0.512 -0.596,-1.107 -1.075,-1.768 l 1.157,-0.512 c 0.43,0.628 0.81,1.222 1.058,1.768 m 1.669,-0.612 -1.124,0.447 a 8.4,8.4 0 0 0 -1.025,-1.703 l 1.075,-0.447 c 0.462,0.579 0.81,1.158 1.074,1.703 m 7.091,1.075 -0.975,1.256 a 17,17 0 0 0 -3.537,-1.884 l 0.975,-1.207 c 1.29,0.512 2.43,1.091 3.537,1.835 m -1.702,3.603 -0.942,1.29 c -0.926,-0.744 -2.066,-1.39 -3.422,-1.984 l 0.958,-1.19 c 1.306,0.496 2.447,1.123 3.406,1.884 m 7.107,-0.843 0.843,1.422 c -3.04,3.405 -6.694,5.587 -10.926,6.495 l -0.86,-1.57 c 4.133,-0.81 7.786,-2.926 10.943,-6.347 m 15.075,6.38 -1.273,1.34 c -1.107,-1.422 -2.513,-2.943 -4.265,-4.563 -1.883,2.05 -3.917,3.587 -6.132,4.562 l -0.942,-1.554 c 3.72,-1.62 6.595,-4.38 8.661,-8.314 h -7.157 v -1.586 h 8.231 l 1.075,1.124 c -0.91,1.934 -1.852,3.454 -2.761,4.578 1.95,1.636 3.487,3.108 4.562,4.414 m 12.976,-10.446 v 1.586 h -9.786 v -1.587 z m 1.471,3.801 v 1.587 h -5.323 c 0,3.223 -1.636,5.522 -4.86,6.877 l -0.941,-1.504 c 2.793,-1.075 4.165,-2.86 4.165,-5.373 h -5.802 v -1.589 z m 14.148,7.026 -1.503,0.942 c -0.149,-0.496 -0.38,-1.075 -0.694,-1.769 -3.29,0.512 -6.58,0.959 -9.902,1.372 l -0.644,-1.752 c 0.777,-0.066 1.487,-0.116 2.082,-0.182 1.008,-2.727 2.034,-5.934 3.042,-9.62 l 1.769,0.33 c -1.092,3.687 -2.083,6.745 -2.976,9.158 l 5.917,-0.695 c -0.463,-0.958 -1.14,-2.032 -2,-3.288 l 1.39,-0.827 c 1.503,2.215 2.693,4.314 3.52,6.331" />
</svg>
