<?xml version="1.0" encoding="UTF-8" standalone="no"?>
<svg viewBox="0 0 406 553" xml:space="preserve" fill-rule="evenodd" clip-rule="evenodd" stroke-linecap="round"
  stroke-linejoin="round" stroke-miterlimit="1.5" version="1.1" id="svg5" xmlns="http://www.w3.org/2000/svg"
  xmlns:svg="http://www.w3.org/2000/svg">
  <defs id="defs5" />
  <path zaparoo-no-print="true"
    d="M405.709 11.811v528.425c0 6.519-5.293 11.811-11.811 11.811H11.811C5.292 552.047 0 546.755 0 540.236V11.811C0 5.292 5.292 0 11.811 0h382.087c6.518 0 11.811 5.292 11.811 11.811Z"
    fill="#008c4a" id="path1" />
  <path zaparoo-no-print="true" fill="none" stroke="#d8a444" stroke-width=".88"
    transform="matrix(1.07971 0 0 1.18309 -14.348 -.882)" d="M29.151 21.204h344.034v392.838H29.151z" id="path2" />
  <path zaparoo-no-print="true" fill="#d8a444" id="path3"
    d="M 183.98047 502.375 L 183.98047 520.36719 L 183.98633 520.36719 L 202.85938 537.20508 L 221.73047 520.36719 L 221.73438 520.36523 L 221.73047 520.36133 L 221.73047 502.375 L 183.98047 502.375 z " />
  <path zaparoo-no-print="true"
    d="M17.123 524.441h1.996l6.284 10.085V524.44h1.614v12.445h-1.892l-6.388-10.084v10.084h-1.614V524.44Zm12.691 0h8.644v1.528h-6.943v3.766h6.11v1.493h-6.11v5.658h-1.7v-12.445Zm15.689-.347c1.58 0 2.812.417 3.68 1.25.867.833 1.353 1.77 1.44 2.829h-1.631c-.191-.799-.573-1.44-1.129-1.91-.555-.468-1.336-.694-2.343-.694-1.215 0-2.204.417-2.968 1.285-.746.868-1.128 2.187-1.128 3.957 0 1.458.347 2.639 1.024 3.559.677.902 1.7 1.353 3.037 1.353 1.25 0 2.205-.468 2.847-1.423.347-.503.607-1.163.764-1.996h1.649c-.14 1.32-.625 2.413-1.458 3.298-.99 1.076-2.326 1.614-3.993 1.614-1.458 0-2.673-.451-3.645-1.319-1.302-1.163-1.944-2.95-1.944-5.363 0-1.84.486-3.35 1.458-4.513 1.042-1.285 2.5-1.927 4.34-1.927Zm12.271.347h5.607c1.11 0 1.996.313 2.69.937.677.625 1.007 1.493 1.007 2.621 0 .972-.295 1.823-.903 2.552-.607.712-1.544 1.076-2.794 1.076h-3.906v5.26h-1.7V524.44Zm7.603 3.576c0-.92-.347-1.545-1.024-1.875-.365-.173-.885-.26-1.528-.26h-3.35v4.322h3.35c.764 0 1.372-.174 1.84-.486.469-.33.712-.885.712-1.701Zm9.06-3.923c1.58 0 2.812.417 3.68 1.25.868.833 1.354 1.77 1.441 2.829h-1.632c-.19-.799-.572-1.44-1.128-1.91-.555-.468-1.336-.694-2.343-.694-1.215 0-2.205.417-2.968 1.285-.747.868-1.129 2.187-1.129 3.957 0 1.458.348 2.639 1.025 3.559.677.902 1.7 1.353 3.037 1.353 1.25 0 2.205-.468 2.847-1.423.347-.503.607-1.163.763-1.996h1.65c-.14 1.32-.625 2.413-1.459 3.298-.989 1.076-2.325 1.614-3.992 1.614-1.458 0-2.673-.451-3.645-1.319-1.302-1.163-1.944-2.95-1.944-5.363 0-1.84.486-3.35 1.458-4.513 1.042-1.285 2.5-1.927 4.34-1.927Zm11.98 5.606c.712 0 1.267-.104 1.65-.295.624-.312.936-.868.936-1.683 0-.816-.33-1.354-.989-1.65-.364-.156-.92-.225-1.666-.225h-3.003v3.853h3.072Zm.556 5.746c1.041 0 1.77-.295 2.221-.903.278-.382.417-.833.417-1.371 0-.903-.4-1.51-1.215-1.84-.434-.174-.99-.26-1.701-.26h-3.35v4.374h3.628Zm-5.277-11.005h5.346c1.458 0 2.5.434 3.107 1.302.365.52.538 1.11.538 1.77 0 .799-.226 1.441-.66 1.944-.242.26-.572.504-1.006.73.642.242 1.11.52 1.44.815.556.538.834 1.302.834 2.257 0 .798-.26 1.527-.764 2.17-.746.971-1.944 1.457-3.576 1.457h-5.26v-12.445Zm255.114 5.354c.781 0 1.406-.156 1.875-.468.451-.313.694-.886.694-1.719 0-.885-.33-1.492-.972-1.805-.347-.173-.798-.26-1.389-.26h-4.113v4.252h3.905Zm-5.589-5.693h5.763c.954 0 1.735.139 2.343.417 1.18.52 1.753 1.51 1.753 2.933 0 .746-.156 1.354-.451 1.84-.313.469-.747.85-1.302 1.128.486.208.85.469 1.093.781.26.33.382.85.417 1.58l.07 1.666c0 .469.052.833.104 1.059.104.4.295.642.555.764v.277h-2.083a1.726 1.726 0 0 1-.121-.416 6.98 6.98 0 0 1-.087-.99l-.104-2.065c-.035-.816-.347-1.354-.903-1.632-.33-.156-.833-.243-1.527-.243h-3.836v5.346h-1.684v-12.445Zm15.902 3.159c.643 0 1.267.156 1.875.451.607.313 1.059.695 1.389 1.18.295.452.503.99.607 1.598.087.416.139 1.093.139 2.013h-6.665c.034.92.26 1.65.66 2.205.398.555 1.04.833 1.891.833.799 0 1.424-.26 1.91-.781.26-.313.45-.66.572-1.06h1.493c-.035.33-.156.712-.382 1.112a3.93 3.93 0 0 1-.763 1.006c-.452.452-1.025.764-1.719.92a5.35 5.35 0 0 1-1.232.14c-1.146 0-2.1-.417-2.882-1.233-.78-.833-1.18-1.979-1.18-3.454 0-1.458.4-2.656 1.198-3.559.78-.902 1.822-1.37 3.09-1.37Zm2.43 4.027c-.052-.66-.208-1.198-.434-1.597-.416-.729-1.11-1.093-2.082-1.093-.712 0-1.285.26-1.77.763-.47.504-.73 1.146-.747 1.927h5.033Zm4.187-3.818 2.43 7.394 2.533-7.395h1.667l-3.42 9.078h-1.631l-3.35-9.078h1.77Zm13.31.485v-1.18c1.093-.104 1.857-.278 2.308-.538.434-.243.746-.833.972-1.77h1.198v12.08h-1.632v-8.592h-2.847ZM376.512 534.707h1.77v1.84h-1.77zM384.563 524.415c1.562 0 2.69.642 3.402 1.944.538.989.816 2.36.816 4.096 0 1.649-.243 3.02-.747 4.096-.711 1.545-1.874 2.326-3.488 2.326-1.458 0-2.535-.625-3.246-1.892-.608-1.059-.903-2.482-.903-4.252 0-1.389.191-2.57.538-3.559.66-1.84 1.875-2.76 3.628-2.76Zm-.017 11.074c.78 0 1.406-.348 1.874-1.06.469-.694.712-1.995.712-3.905 0-1.388-.174-2.516-.503-3.402-.348-.885-1.007-1.336-1.98-1.336-.902 0-1.561.416-1.978 1.267-.417.85-.625 2.083-.625 3.732 0 1.232.139 2.239.4 2.985.416 1.146 1.11 1.719 2.1 1.719Z"
    fill="#d8a444" fill-rule="nonzero" id="path5" />
  <rect zaparoo-placeholder="main" zaparoo-fill-strategy="cover" stroke-dasharray="5 5" x="29.151" y="21.204"
    width="344.034" height="392.838" fill="none" stroke="red" stroke-width=".88"
    transform="matrix(1.07971 0 0 1.18309 -14.348 -.882)" id="rect5" />
</svg>