<svg width="618.6" height="994" xmlns="http://www.w3.org/2000/svg">
  <rect x="-12" y="-12" width="643" height="1018" fill="none" stroke-width="0" stroke="none" />
  <path
    d="M321 339.3c-256.7 0-295.8 24.3-295.8 281 0 256.6 32.6 365.823 289.4 365.823 256.7 0 280.8-111.323 280.8-368.023 0-256.7-17.7-278.8-274.4-278.8zm-12.7 54.4c59.016 0 106.89 47.784 107 106.8 0 59-47.9 106.7-107 106.7s-107-47.8-107-106.7c0-59 47.9-106.8 107-106.8z"
    fill-rule="evenodd" />
  <path
    d="M24.3.1C10.3.3 0 11.1 0 24.1V970c0 11.8 11.5 24 23 24h164c0-6.8 6.3-12.2 14-12.2 7.6 0 13.8 5.4 13.8 12.1v.2h179.5v-.2c0-6.7 6.2-12.1 13.8-12.1 7.7 0 13.9 5.4 13.9 12.1v.2h172.8c13.4 0 23.7-12.9 23.7-24.3V273.4h-25.1a3.5 3.5 0 0 1-3.5-3.4v-37.7c0-1.9 1.6-3.4 3.5-3.4h25.1V25.1c0-13.847-11.253-25.056-25.1-25zm283 348c84.5 0 152.8 68.2 152.8 152.4 0 84.1-68.3 152.3-152.8 152.3-84.239.167-152.679-67.96-152.9-152.2 0-84.2 68.5-152.4 153-152.4zm190 169.8c12.1 0 22 9.9 22 22 0 12.15-9.849 22-22 22-12.15 0-22-9.85-22-22s9.85-22 22-22zM280.522 678.508v2.36c-8.419 0-15.267 6.862-15.267 15.296h-2.36c0-9.736 7.908-17.656 17.627-17.656zm1.291 0h47.391c15.988 0 28.947 12.983 28.947 29v126.451h-18.914V712.486c0-8.3-6.717-15.029-15.004-15.029h-42.42v72.344h53.354v20.48h-53.353v67.643h-18.918V697.457h18.917zm-1.29 5.158v2.363c-5.58 0-10.118 4.547-10.118 10.135h-2.357c0-6.891 5.596-12.498 12.474-12.498zm-.003 5.16v2.362c-2.738 0-4.964 2.232-4.964 4.976h-2.358c0-4.047 3.284-7.338 7.322-7.338zm5.364 13.33h36.978c6.797 0 12.305 5.519 12.305 12.326v38.29c0 6.808-5.508 12.328-12.305 12.328h-36.978zm18.914 20.483v21.98h8.838a2.619 2.619 0 0 0 2.615-2.623v-16.738c0-1.448-1.17-2.62-2.615-2.62zm-18.914 72.34h36.978c6.797 0 12.305 5.52 12.305 12.328v26.652H316.25v-15.875a2.62 2.62 0 0 0-2.615-2.623h-8.838v21.98h53.353v20.483h-72.267zm-22.989 66.244h18.918v67.642h42.42c8.286 0 15.004-6.73 15.004-15.03v-52.612h18.914v59.125c0 16.016-12.959 29-28.947 29h-47.39v19.484h-18.918zm22.989 0h49.283v20.48h-30.37v21.98h8.839a2.616 2.616 0 0 0 2.615-2.618v-15.877h18.916v26.652c0 6.808-5.508 12.326-12.305 12.326h-36.978z"
    fill="#666" />
  <path
    d="M24.3.1C10.3.3 0 11.1 0 24.1V970c0 11.8 11.5 24 23 24h164c0-6.8 6.3-12.2 14-12.2 7.6 0 13.8 5.4 13.8 12.1v.2h179.5v-.2c0-6.7 6.2-12.1 13.8-12.1 7.7 0 13.9 5.4 13.9 12.1v.2h172.8c13.4 0 23.7-12.9 23.7-24.3V273.4h-25.1a3.5 3.5 0 0 1-3.5-3.4v-37.7c0-1.9 1.6-3.4 3.5-3.4h25.1V25.1c0-13.847-11.253-25.056-25.1-25zM37 12.6v.1h519.9c10.3 0 18.6 9.4 18.6 21v274.2c0 11.7-8.3 21.1-18.6 21.1H37c-10.2 0-18.5-9.4-18.5-21V33.7c0-11.7 8.3-21.1 18.5-21.1Zm270.3 335.5c84.5 0 152.8 68.2 152.8 152.4 0 84.1-68.3 152.3-152.8 152.3-84.239.167-152.679-67.96-152.9-152.2 0-84.2 68.5-152.4 153-152.4zm190 169.8c12.1 0 22 9.9 22 22 0 12.15-9.849 22-22 22-12.15 0-22-9.85-22-22s9.85-22 22-22zM280.522 678.508v2.36c-8.419 0-15.267 6.862-15.267 15.296h-2.36c0-9.736 7.908-17.656 17.627-17.656zm1.291 0h47.391c15.988 0 28.947 12.983 28.947 29v126.451h-18.914V712.486c0-8.3-6.717-15.029-15.004-15.029h-42.42v72.344h53.354v20.48h-53.353v67.643h-18.918V697.457h18.917zm-1.29 5.158v2.363c-5.58 0-10.118 4.547-10.118 10.135h-2.357c0-6.891 5.596-12.498 12.474-12.498zm-.003 5.16v2.362c-2.738 0-4.964 2.232-4.964 4.976h-2.358c0-4.047 3.284-7.338 7.322-7.338zm5.364 13.33h36.978c6.797 0 12.305 5.519 12.305 12.326v38.29c0 6.808-5.508 12.328-12.305 12.328h-36.978zm18.914 20.483v21.98h8.838a2.619 2.619 0 0 0 2.615-2.623v-16.738c0-1.448-1.17-2.62-2.615-2.62zm-18.914 72.34h36.978c6.797 0 12.305 5.52 12.305 12.328v26.652H316.25v-15.875a2.62 2.62 0 0 0-2.615-2.623h-8.838v21.98h53.353v20.483h-72.267zm-22.989 66.244h18.918v67.642h42.42c8.286 0 15.004-6.73 15.004-15.03v-52.612h18.914v59.125c0 16.016-12.959 29-28.947 29h-47.39v19.484h-18.918zm22.989 0h49.283v20.48h-30.37v21.98h8.839a2.616 2.616 0 0 0 2.615-2.619v-15.877h18.916v26.653c0 6.807-5.508 12.326-12.305 12.326h-36.978z"
    fill="#666" />
  <rect id="placeholder" zaparoo-placeholder="main" x="20" y="12.6" width="555" height="316" fill="none" stroke="red"
    stroke-dasharray="5 5" stroke-width="2" zaparoo-fill-strategy="fit" />
</svg>