<?xml version="1.0" encoding="UTF-8" standalone="no"?>
<svg viewBox="0 0 745 1040" xml:space="preserve" version="1.1" id="svg11" xmlns:xlink="http://www.w3.org/1999/xlink"
  xmlns="http://www.w3.org/2000/svg" xmlns:svg="http://www.w3.org/2000/svg">
  <image zaparoo-no-print="true" xlink:href="https://design.zaparoo.org/ZapTradingCard.png" width="745" height="1040">
  </image>
  d="m 141.49,799.112 v 3.56 h -29.66 v -3.56 h 17.159 c 0.341,-4.66 0.682,-9.205 0.947,-13.827 h -13.788 v -3.598 h
  17.917 c -0.378,6.78 -0.757,12.576 -1.136,17.425 z m 29.016,-17.349 v 3.712 H 147.93 v -3.712 z m 3.485,16.78 v 3.788
  h -29.357 v -3.788 z m 5.72,5.569 -3.637,-2.765 c 3.978,-5.607 6.667,-12.652 7.955,-21.175 l 3.75,1.742 c -1.553,8.712
  -4.242,16.061 -8.068,22.198 z m 26.592,-2.5 -4.091,1.742 c -1.402,-7.121 -4.053,-14.243 -7.804,-21.44 l 3.372,-1.742 c
  3.939,6.97 6.78,14.129 8.523,21.44 z m -1.364,-19.168 -2.803,1.137 c -0.417,-1.212 -1.212,-2.652 -2.273,-4.205 l
  2.652,-1.174 c 0.947,1.363 1.818,2.803 2.424,4.242 z m 3.864,-1.818 -2.69,1.25 a 27.214,27.214 0 0 0 -2.575,-4.053 l
  2.613,-1.136 c 0.985,1.212 1.856,2.538 2.652,3.939 z m 27.955,9.243 v 3.068 h -23.94 v -3.068 z m 36.29,-5.341 v 3.636
  h -7.273 v 2.462 c 0,7.917 -4.205,13.372 -12.539,16.327 l -2.121,-3.485 c 7.273,-2.159 10.872,-6.44 10.872,-12.842 v
  -2.462 h -9.13 v 8.561 h -3.75 v -8.561 h -7.083 v -3.636 h 7.083 v -7.122 h 3.75 v 7.122 h 9.13 v -7.387 h 3.788 v
  7.387 z m 5.075,20.796 -2.424,-3.296 c 4.015,-3.257 6.061,-7.954 6.061,-14.091 v -9.281 h 3.75 v 9.433 c 0,7.272
  -2.424,12.992 -7.387,17.235 z m 25.153,-15.038 2.197,3.333 c -3.788,5.417 -8.372,9.129 -13.826,11.364 l -1.932,-4.243
  0.568,-0.227 v -22.879 h 3.788 v 21.288 c 3.826,-2.235 6.894,-5.114 9.205,-8.636 z m 31.213,-9.508 v 22.311 h -22.955
  v -22.311 z m -19.243,18.788 h 15.455 v -15.265 h -15.455 z m 52.578,-9.697 v 3.068 h -23.941 v -3.068 z m
  28.826,-11.44 v 3.637 h -19.925 v -3.637 z m 5.493,8.713 v 3.636 h -11.819 c 0,7.387 -3.712,12.652 -11.136,15.758 l
  -2.16,-3.447 c 6.364,-2.462 9.546,-6.553 9.546,-12.311 H 373.24 v -3.636 z m -0.379,-6.364 -2.5,1.022 c -0.492,-1.515
  -1.25,-3.03 -2.273,-4.507 l 2.463,-1.023 a 25.229,25.229 0 0 1 2.31,4.508 z m 3.75,-1.516 -2.462,0.985 a 18.365,18.365
  0 0 0 -2.197,-4.28 l 2.462,-1.061 c 0.909,1.402 1.667,2.841 2.197,4.356 z m 18.296,11.895 v 15.303 h -3.485 v -12.462
  c -2.121,1.591 -4.735,3.182 -7.803,4.697 l -2.159,-3.371 c 6.364,-2.804 11.667,-6.97 15.948,-12.236 l 2.841,2.387 a
  57.44,57.44 0 0 1 -5.342,5.682 z m 28.941,-6.402 -2.614,3.03 c -2.273,-2.31 -4.849,-4.28 -7.652,-6.098 l 2.614,-2.879
  a 48.693,48.693 0 0 1 7.652,5.947 z m 12.993,2.008 2.159,3.371 c -6.288,7.765 -14.357,12.917 -24.016,15.304 l
  -1.743,-3.637 c 9.698,-2.386 17.653,-7.424 23.6,-15.038 z m 30.077,-4.546 2.31,2.462 c -3.561,10.493 -10,17.88
  -19.357,22.009 l -2.197,-3.22 c 8.334,-3.75 14.092,-9.622 17.35,-17.614 h -10.683 c -2.159,3.182 -4.507,5.795
  -7.083,7.803 l -2.425,-2.765 c 4.584,-3.599 7.766,-8.182 9.66,-13.902 l 3.598,0.303 c -0.568,1.932 -1.25,3.523
  -1.856,4.924 z m 3.901,-1.894 -2.614,1.174 c -0.53,-1.174 -1.363,-2.538 -2.462,-4.053 l 2.652,-1.174 c 0.985,1.439
  1.856,2.803 2.424,4.053 z m 3.826,-1.401 -2.576,1.022 c -0.53,-1.212 -1.288,-2.5 -2.348,-3.901 l 2.462,-1.023 a
  20.645,20.645 0 0 1 2.462,3.902 z m 16.251,2.462 -2.235,2.879 c -2.538,-1.743 -5.152,-3.182 -8.107,-4.319 l
  2.235,-2.765 c 2.955,1.174 5.569,2.5 8.107,4.205 z m -3.902,8.258 -2.159,2.954 c -2.121,-1.704 -4.735,-3.182
  -7.841,-4.545 l 2.197,-2.728 c 2.992,1.137 5.606,2.576 7.803,4.319 z m 16.288,-1.932 1.932,3.257 c -6.97,7.804
  -15.341,12.804 -25.038,14.887 l -1.97,-3.598 c 9.47,-1.856 17.841,-6.705 25.076,-14.546 z m 34.547,14.621 -2.917,3.069
  c -2.538,-3.258 -5.757,-6.743 -9.773,-10.455 -4.318,4.697 -8.977,8.22 -14.053,10.455 l -2.159,-3.561 c 8.523,-3.712
  15.114,-10.038 19.849,-19.054 h -16.402 v -3.636 h 18.864 l 2.462,2.576 c -2.083,4.432 -4.242,7.917 -6.326,10.492
  4.47,3.751 7.993,7.122 10.455,10.114 z m 29.736,-23.94 v 3.637 h -22.425 v -3.637 z m 3.371,8.713 v 3.636 h -12.197 c
  0,7.387 -3.75,12.652 -11.137,15.758 l -2.159,-3.447 c 6.402,-2.462 9.546,-6.553 9.546,-12.311 h -13.296 v -3.636 z m
  32.426,16.099 -3.447,2.159 c -0.341,-1.137 -0.872,-2.462 -1.591,-4.053 -7.539,1.174 -15.077,2.197 -22.691,3.144 l
  -1.477,-4.016 c 1.78,-0.151 3.409,-0.265 4.773,-0.416 2.311,-6.25 4.659,-13.599 6.97,-22.046 l 4.053,0.757 c
  -2.5,8.447 -4.773,15.455 -6.818,20.986 l 13.561,-1.591 c -1.061,-2.197 -2.614,-4.66 -4.584,-7.538 l 3.182,-1.894 c
  3.447,5.076 6.175,9.886 8.069,14.508 z M 118.055,725.05 v 15.29 c 0,1.53 0.377,2.707 1.129,3.532 0.752,0.825
  1.857,1.238 3.313,1.238 1.456,0 2.573,-0.413 3.349,-1.238 0.777,-0.825 1.165,-2.002 1.165,-3.532 v -15.29 h 6.226 v
  15.254 c 0,2.282 -0.485,4.211 -1.456,5.789 -0.971,1.577 -2.276,2.767 -3.914,3.568 -1.638,0.801 -3.465,1.201
  -5.479,1.201 -2.015,0 -3.817,-0.394 -5.407,-1.183 -1.589,-0.789 -2.845,-1.978 -3.768,-3.568 -0.922,-1.59 -1.383,-3.525
  -1.383,-5.807 V 725.05 Z m 42.414,25.557 h -6.225 l -10.413,-15.764 v 15.764 h -6.225 V 725.05 h 6.225 l 10.413,15.837
  V 725.05 h 6.225 z m 10.74,-25.557 v 25.557 h -6.225 V 725.05 Z m 28.507,0 -9.066,25.557 h -7.791 l -9.065,-25.557 h
  6.626 l 6.335,19.295 6.371,-19.295 z m 8.81,4.987 v 5.17 h 8.337 v 4.806 h -8.337 v 5.606 h 9.43 v 4.988 H 202.301 V
  725.05 h 15.655 v 4.987 z m 26.504,20.57 -5.315,-9.648 h -1.493 v 9.648 h -6.225 V 725.05 h 10.448 c 2.015,0
  3.732,0.352 5.152,1.055 1.42,0.704 2.482,1.669 3.186,2.895 0.703,1.225 1.055,2.591 1.055,4.096 0,1.699 -0.479,3.215
  -1.438,4.55 -0.958,1.335 -2.372,2.282 -4.241,2.84 l 5.898,10.121 z m -6.808,-14.053 h 3.859 c 1.141,0 1.997,-0.279
  2.567,-0.837 0.57,-0.558 0.856,-1.347 0.856,-2.367 0,-0.97 -0.286,-1.735 -0.856,-2.293 -0.57,-0.558 -1.426,-0.838
  -2.567,-0.838 h -3.859 z m 26.759,14.308 c -1.869,0 -3.543,-0.303 -5.024,-0.91 -1.48,-0.607 -2.664,-1.505 -3.55,-2.694
  -0.885,-1.19 -1.353,-2.622 -1.401,-4.296 h 6.626 c 0.097,0.946 0.425,1.668 0.983,2.166 0.558,0.498 1.286,0.746
  2.184,0.746 0.923,0 1.651,-0.212 2.185,-0.637 0.534,-0.425 0.801,-1.013 0.801,-1.766 0,-0.631 -0.213,-1.152
  -0.638,-1.565 a 5.12,5.12 0 0 0 -1.565,-1.019 c -0.619,-0.267 -1.499,-0.571 -2.64,-0.911 -1.65,-0.509 -2.997,-1.019
  -4.041,-1.529 -1.043,-0.509 -1.941,-1.262 -2.694,-2.257 -0.752,-0.995 -1.128,-2.294 -1.128,-3.895 0,-2.379
  0.861,-4.242 2.584,-5.589 1.724,-1.347 3.969,-2.02 6.736,-2.02 2.815,0 5.085,0.673 6.808,2.02 1.723,1.347 2.645,3.222
  2.767,5.625 h -6.736 c -0.048,-0.825 -0.351,-1.474 -0.91,-1.948 -0.558,-0.473 -1.274,-0.71 -2.148,-0.71 -0.752,0
  -1.359,0.201 -1.82,0.601 -0.461,0.4 -0.692,0.977 -0.692,1.729 0,0.826 0.389,1.469 1.165,1.93 0.777,0.461 1.99,0.959
  3.641,1.493 1.65,0.558 2.991,1.092 4.023,1.601 1.031,0.51 1.923,1.25 2.676,2.221 0.752,0.971 1.128,2.221 1.128,3.75
  0,1.456 -0.37,2.779 -1.11,3.969 -0.74,1.189 -1.814,2.135 -3.222,2.839 -1.408,0.704 -3.07,1.056 -4.988,1.056 z m
  29.053,-4.769 h -9.539 l -1.529,4.514 h -6.517 l 9.248,-25.557 h 7.208 l 9.248,25.557 h -6.59 z m -1.602,-4.806
  -3.167,-9.356 -3.131,9.356 z m 18.749,4.514 h 8.156 v 4.806 H 294.956 V 725.05 h 6.225 z m 25.085,0 h 8.155 v 4.806 H
  320.04 V 725.05 h 6.226 z m 23.227,5.061 c -2.403,0 -4.605,-0.558 -6.608,-1.675 -2.002,-1.116 -3.592,-2.676
  -4.769,-4.678 -1.177,-2.002 -1.766,-4.253 -1.766,-6.753 0,-2.5 0.589,-4.745 1.766,-6.736 a 12.565,12.565 0 0 1
  4.769,-4.66 c 2.003,-1.116 4.205,-1.674 6.608,-1.674 2.403,0 4.606,0.558 6.608,1.674 a 12.305,12.305 0 0 1 4.733,4.66
  c 1.153,1.991 1.729,4.236 1.729,6.736 0,2.5 -0.582,4.751 -1.747,6.753 -1.165,2.002 -2.743,3.562 -4.733,4.678
  -1.99,1.117 -4.187,1.675 -6.59,1.675 z m 0,-5.679 c 2.039,0 3.671,-0.68 4.897,-2.039 1.226,-1.359 1.838,-3.155
  1.838,-5.388 0,-2.258 -0.612,-4.06 -1.838,-5.407 -1.226,-1.347 -2.858,-2.02 -4.897,-2.02 -2.063,0 -3.707,0.667
  -4.933,2.002 -1.226,1.335 -1.838,3.143 -1.838,5.425 0,2.257 0.612,4.059 1.838,5.406 1.226,1.347 2.87,2.021 4.933,2.021
  z m 32.439,0.91 h -9.539 l -1.529,4.514 h -6.517 l 9.248,-25.557 h 7.208 l 9.247,25.557 h -6.589 z m -1.602,-4.806
  -3.168,-9.356 -3.131,9.356 z m 22.099,-16.237 c 2.694,0 5.048,0.534 7.063,1.602 2.014,1.067 3.574,2.566 4.678,4.496
  1.104,1.929 1.656,4.156 1.656,6.68 0,2.5 -0.552,4.721 -1.656,6.663 -1.104,1.942 -2.67,3.446 -4.697,4.514 -2.026,1.068
  -4.374,1.602 -7.044,1.602 h -9.575 V 725.05 Z m -0.401,20.169 c 2.355,0 4.187,-0.643 5.498,-1.93 1.31,-1.286
  1.966,-3.106 1.966,-5.461 0,-2.354 -0.656,-4.186 -1.966,-5.497 -1.311,-1.311 -3.143,-1.966 -5.498,-1.966 h -2.949 v
  14.854 z m 23.519,-20.169 v 25.557 h -6.226 V 725.05 Z m 27.378,25.557 h -6.226 l -10.412,-15.764 v 15.764 h -6.226 V
  725.05 h 6.226 l 10.412,15.837 V 725.05 h 6.226 z m 21.48,-17.475 a 4.656,4.656 0 0 0 -1.984,-1.948 c -0.862,-0.449
  -1.875,-0.673 -3.04,-0.673 -2.015,0 -3.629,0.661 -4.842,1.984 -1.214,1.323 -1.821,3.088 -1.821,5.297 0,2.354
  0.637,4.193 1.912,5.516 1.274,1.322 3.028,1.984 5.26,1.984 1.53,0 2.822,-0.389 3.878,-1.165 1.056,-0.777 1.826,-1.893
  2.312,-3.35 h -7.901 v -4.587 h 13.544 v 5.789 c -0.461,1.553 -1.244,2.997 -2.349,4.332 -1.104,1.335 -2.506,2.415
  -4.205,3.24 -1.699,0.826 -3.616,1.238 -5.752,1.238 -2.524,0 -4.775,-0.552 -6.753,-1.656 a 11.804,11.804 0 0 1
  -4.624,-4.606 c -1.104,-1.966 -1.656,-4.211 -1.656,-6.735 0,-2.524 0.552,-4.775 1.656,-6.753 a 11.79,11.79 0 0 1
  4.606,-4.624 c 1.965,-1.104 4.211,-1.657 6.735,-1.657 3.058,0 5.637,0.741 7.736,2.221 2.1,1.481 3.489,3.532
  4.169,6.153 z m 27.742,17.73 c -1.869,0 -3.544,-0.303 -5.024,-0.91 -1.481,-0.607 -2.664,-1.505 -3.55,-2.694
  -0.886,-1.19 -1.353,-2.622 -1.402,-4.296 h 6.626 c 0.098,0.946 0.425,1.668 0.983,2.166 0.559,0.498 1.287,0.746
  2.185,0.746 0.922,0 1.65,-0.212 2.184,-0.637 0.534,-0.425 0.801,-1.013 0.801,-1.766 0,-0.631 -0.212,-1.152
  -0.637,-1.565 a 5.144,5.144 0 0 0 -1.565,-1.019 c -0.619,-0.267 -1.499,-0.571 -2.64,-0.911 -1.65,-0.509 -2.997,-1.019
  -4.041,-1.529 -1.044,-0.509 -1.942,-1.262 -2.694,-2.257 -0.753,-0.995 -1.129,-2.294 -1.129,-3.895 0,-2.379
  0.862,-4.242 2.585,-5.589 1.723,-1.347 3.968,-2.02 6.735,-2.02 2.816,0 5.085,0.673 6.808,2.02 1.724,1.347 2.646,3.222
  2.767,5.625 h -6.735 c -0.048,-0.825 -0.352,-1.474 -0.91,-1.948 -0.558,-0.473 -1.274,-0.71 -2.148,-0.71 -0.752,0
  -1.359,0.201 -1.82,0.601 -0.462,0.4 -0.692,0.977 -0.692,1.729 0,0.826 0.388,1.469 1.165,1.93 0.777,0.461 1.99,0.959
  3.641,1.493 1.65,0.558 2.991,1.092 4.022,1.601 1.032,0.51 1.924,1.25 2.676,2.221 0.753,0.971 1.129,2.221 1.129,3.75
  0,1.456 -0.37,2.779 -1.11,3.969 -0.741,1.189 -1.815,2.135 -3.222,2.839 -1.408,0.704 -3.071,1.056 -4.988,1.056 z m
  35.06,-25.812 -8.847,17.111 v 8.446 h -6.226 v -8.446 l -8.847,-17.111 h 7.063 l 4.952,10.703 4.914,-10.703 z m
  11.759,25.812 c -1.869,0 -3.544,-0.303 -5.024,-0.91 -1.481,-0.607 -2.664,-1.505 -3.55,-2.694 -0.886,-1.19
  -1.353,-2.622 -1.401,-4.296 h 6.626 c 0.097,0.946 0.424,1.668 0.983,2.166 0.558,0.498 1.286,0.746 2.184,0.746 0.922,0
  1.65,-0.212 2.184,-0.637 0.534,-0.425 0.801,-1.013 0.801,-1.766 0,-0.631 -0.212,-1.152 -0.637,-1.565 a 5.131,5.131 0 0
  0 -1.565,-1.019 c -0.619,-0.267 -1.499,-0.571 -2.64,-0.911 -1.65,-0.509 -2.997,-1.019 -4.041,-1.529 -1.044,-0.509
  -1.942,-1.262 -2.694,-2.257 -0.752,-0.995 -1.129,-2.294 -1.129,-3.895 0,-2.379 0.862,-4.242 2.585,-5.589 1.723,-1.347
  3.969,-2.02 6.735,-2.02 2.816,0 5.085,0.673 6.809,2.02 1.723,1.347 2.645,3.222 2.766,5.625 h -6.735 c -0.048,-0.825
  -0.352,-1.474 -0.91,-1.948 -0.558,-0.473 -1.274,-0.71 -2.148,-0.71 -0.752,0 -1.359,0.201 -1.82,0.601 -0.461,0.4
  -0.692,0.977 -0.692,1.729 0,0.826 0.388,1.469 1.165,1.93 0.777,0.461 1.99,0.959 3.641,1.493 1.65,0.558 2.991,1.092
  4.023,1.601 1.031,0.51 1.923,1.25 2.676,2.221 0.752,0.971 1.128,2.221 1.128,3.75 0,1.456 -0.37,2.779 -1.11,3.969
  -0.741,1.189 -1.815,2.135 -3.222,2.839 -1.408,0.704 -3.071,1.056 -4.988,1.056 z m 31.528,-25.812 v 4.987 h -6.771 v
  20.57 h -6.226 v -20.57 h -6.772 v -4.987 z m 9.357,4.987 v 5.17 h 8.337 v 4.806 h -8.337 v 5.606 h 9.429 v 4.988 H
  583.625 V 725.05 h 15.655 v 4.987 z m 42.414,-4.987 v 25.557 h -6.226 V 735.28 l -5.716,15.327 h -5.024 l
  -5.752,-15.363 v 15.363 h -6.226 V 725.05 h 7.354 l 7.173,17.693 7.099,-17.693 z m 0,38.834 a 2.954,2.954 0 0 1
  -2.953,2.953 H 114.783 a 2.954,2.954 0 0 1 0,-5.906 h 514.529 a 2.954,2.954 0 0 1 2.953,2.953 z"
  style="fill-rule:evenodd;clip-rule:evenodd;stroke-linecap:round;stroke-linejoin:round;stroke-miterlimit:1.5;display:inline;fill:#ffffff"
  id="path8" transform="matrix(0.46340749,0,0,0.46340749,199.51211,645.96835)" />
  <path zaparoo-placeholder="main" zaparoo-fill-strategy="cover" stroke-dasharray="5, 5"
    d="m 732.283,99.827 v 387.944 c 0,6.206 -10.584,11.245 -23.622,11.245 H 35.433 c -13.037,0 -23.622,-5.039 -23.622,-11.245 V 99.827 c 0,-6.206 10.585,-11.244 23.622,-11.244 h 673.228 c 13.038,0 23.622,5.038 23.622,11.244 z"
    style="fill:none;stroke:#ff0000;stroke-width:0.83px" transform="matrix(1,0,0,2.10072,0,-97.5047)" />
</svg>